<svg xmlns="http://www.w3.org/2000/svg" xmlns:xlink="http://www.w3.org/1999/xlink" width="500" zoomAndPan="magnify" viewBox="0 0 375 374.999991" height="500" preserveAspectRatio="xMidYMid meet" version="1.0"><defs><g/></defs><g fill="#764ba2" fill-opacity="0.4"><g transform="translate(91.56947, 181.136619)"><g><path d="M 1.65625 -6.8125 L 10.75 -14.34375 C 10.75 -14.34375 10.851562 -14.226562 11.0625 -14 C 11.269531 -13.78125 11.507812 -13.53125 11.78125 -13.25 C 12.0625 -12.976562 12.296875 -12.726562 12.484375 -12.5 C 12.679688 -12.28125 12.742188 -12.171875 12.671875 -12.171875 C 12.648438 -12.171875 12.410156 -11.988281 11.953125 -11.625 C 11.503906 -11.257812 10.941406 -10.785156 10.265625 -10.203125 C 9.585938 -9.628906 8.894531 -9.039062 8.1875 -8.4375 C 7.476562 -7.84375 6.835938 -7.300781 6.265625 -6.8125 C 5.703125 -6.332031 5.3125 -6.003906 5.09375 -5.828125 L 11.203125 -2.15625 C 11.316406 -2.070312 11.34375 -1.898438 11.28125 -1.640625 C 11.226562 -1.390625 11.15625 -1.148438 11.0625 -0.921875 C 10.976562 -0.703125 10.9375 -0.59375 10.9375 -0.59375 Z M 1.65625 -6.8125 "/></g></g></g><g fill="#764ba2" fill-opacity="0.4"><g transform="translate(101.450206, 181.136619)"><g><path d="M 17.703125 -23.890625 C 17.898438 -23.890625 18.171875 -23.832031 18.515625 -23.71875 C 18.859375 -23.601562 19.171875 -23.460938 19.453125 -23.296875 C 19.742188 -23.128906 19.890625 -22.96875 19.890625 -22.8125 C 19.890625 -22.707031 19.765625 -22.40625 19.515625 -21.90625 C 19.273438 -21.40625 18.984375 -20.851562 18.640625 -20.25 C 18.296875 -19.65625 17.957031 -19.140625 17.625 -18.703125 C 17.289062 -18.273438 17.023438 -18.0625 16.828125 -18.0625 C 16.191406 -18.0625 15.875 -18.148438 15.875 -18.328125 C 15.875 -18.367188 15.929688 -18.503906 16.046875 -18.734375 C 16.171875 -18.972656 16.316406 -19.242188 16.484375 -19.546875 C 16.648438 -19.847656 16.789062 -20.097656 16.90625 -20.296875 C 17.03125 -20.597656 17.140625 -20.953125 17.234375 -21.359375 C 17.335938 -21.773438 17.425781 -22.171875 17.5 -22.546875 L 10.875 -22.0625 C 10.96875 -22.03125 11.039062 -21.992188 11.09375 -21.953125 C 11.144531 -21.910156 11.195312 -21.867188 11.25 -21.828125 C 11.445312 -21.671875 11.566406 -21.546875 11.609375 -21.453125 C 11.648438 -21.367188 11.671875 -21.25 11.671875 -21.09375 C 11.671875 -20.914062 11.554688 -20.460938 11.328125 -19.734375 C 11.097656 -19.015625 10.789062 -18.117188 10.40625 -17.046875 C 10.03125 -15.972656 9.597656 -14.804688 9.109375 -13.546875 C 9.710938 -13.566406 10.414062 -13.578125 11.21875 -13.578125 C 12.03125 -13.578125 12.878906 -13.578125 13.765625 -13.578125 L 13.3125 -12.703125 C 13.3125 -12.703125 13.039062 -12.671875 12.5 -12.609375 C 11.96875 -12.546875 11.335938 -12.46875 10.609375 -12.375 C 9.878906 -12.28125 9.210938 -12.203125 8.609375 -12.140625 C 8.054688 -10.679688 7.503906 -9.21875 6.953125 -7.75 C 6.398438 -6.289062 5.882812 -4.953125 5.40625 -3.734375 C 4.925781 -2.523438 4.539062 -1.554688 4.25 -0.828125 C 3.96875 -0.0976562 3.828125 0.265625 3.828125 0.265625 C 3.671875 0.128906 3.539062 0.0351562 3.4375 -0.015625 C 3.34375 -0.0664062 3.222656 -0.144531 3.078125 -0.25 C 2.929688 -0.351562 2.710938 -0.535156 2.421875 -0.796875 C 2.140625 -1.046875 1.882812 -1.300781 1.65625 -1.5625 C 1.4375 -1.832031 1.328125 -1.96875 1.328125 -1.96875 L 7.6875 -21.828125 C 6.800781 -21.753906 6.269531 -21.71875 6.09375 -21.71875 C 6.019531 -21.71875 5.992188 -21.804688 6.015625 -21.984375 C 6.035156 -22.160156 6.0625 -22.335938 6.09375 -22.515625 C 6.132812 -22.691406 6.15625 -22.78125 6.15625 -22.78125 C 6.195312 -22.832031 6.390625 -22.878906 6.734375 -22.921875 C 7.078125 -22.960938 7.523438 -23.019531 8.078125 -23.09375 C 8.972656 -23.175781 10.007812 -23.257812 11.1875 -23.34375 C 12.375 -23.4375 13.550781 -23.515625 14.71875 -23.578125 C 15.882812 -23.648438 16.863281 -23.6875 17.65625 -23.6875 C 17.6875 -23.75 17.703125 -23.796875 17.703125 -23.828125 C 17.703125 -23.867188 17.703125 -23.890625 17.703125 -23.890625 Z M 17.703125 -23.890625 "/></g></g></g><g fill="#764ba2" fill-opacity="0.4"><g transform="translate(114.85752, 181.136619)"><g><path d="M 11.34375 0.53125 L 11.34375 0.5 C 11.125 0.320312 10.953125 0.191406 10.828125 0.109375 C 10.703125 0.0351562 10.429688 -0.164062 10.015625 -0.5 C 9.722656 -0.738281 9.46875 -0.988281 9.25 -1.25 C 9.03125 -1.519531 8.921875 -1.65625 8.921875 -1.65625 L 10.484375 -6.484375 C 10.015625 -5.835938 9.457031 -5.117188 8.8125 -4.328125 C 8.164062 -3.546875 7.515625 -2.789062 6.859375 -2.0625 C 6.210938 -1.332031 5.632812 -0.734375 5.125 -0.265625 C 4.613281 0.203125 4.257812 0.4375 4.0625 0.4375 C 3.925781 0.4375 3.648438 0.320312 3.234375 0.09375 C 2.828125 -0.125 2.410156 -0.367188 1.984375 -0.640625 C 1.566406 -0.921875 1.238281 -1.160156 1 -1.359375 C 0.925781 -1.429688 0.867188 -1.644531 0.828125 -2 C 0.785156 -2.351562 0.75 -2.769531 0.71875 -3.25 C 0.6875 -3.738281 0.671875 -4.195312 0.671875 -4.625 C 0.671875 -6.082031 0.910156 -7.367188 1.390625 -8.484375 C 1.878906 -9.609375 2.507812 -10.566406 3.28125 -11.359375 C 4.0625 -12.148438 4.882812 -12.789062 5.75 -13.28125 C 6.613281 -13.78125 7.425781 -14.144531 8.1875 -14.375 C 8.957031 -14.613281 9.566406 -14.734375 10.015625 -14.734375 C 10.210938 -14.734375 10.453125 -14.582031 10.734375 -14.28125 C 11.023438 -13.988281 11.316406 -13.644531 11.609375 -13.25 C 11.898438 -12.863281 12.132812 -12.523438 12.3125 -12.234375 L 13.140625 -14.796875 C 13.140625 -14.796875 13.253906 -14.71875 13.484375 -14.5625 C 13.722656 -14.414062 14.007812 -14.234375 14.34375 -14.015625 C 14.675781 -13.804688 14.988281 -13.59375 15.28125 -13.375 C 15.582031 -13.15625 15.8125 -12.976562 15.96875 -12.84375 C 16.144531 -12.664062 16.25 -12.53125 16.28125 -12.4375 C 16.3125 -12.351562 16.328125 -12.222656 16.328125 -12.046875 C 16.328125 -11.847656 16.234375 -11.457031 16.046875 -10.875 C 15.859375 -10.300781 15.609375 -9.613281 15.296875 -8.8125 C 14.992188 -8.019531 14.65625 -7.171875 14.28125 -6.265625 C 13.914062 -5.367188 13.550781 -4.492188 13.1875 -3.640625 C 12.820312 -2.785156 12.492188 -2.035156 12.203125 -1.390625 C 12.316406 -1.441406 12.421875 -1.484375 12.515625 -1.515625 C 12.617188 -1.546875 12.738281 -1.59375 12.875 -1.65625 C 13.070312 -1.769531 13.351562 -1.953125 13.71875 -2.203125 C 14.082031 -2.460938 14.445312 -2.726562 14.8125 -3 C 15.1875 -3.28125 15.503906 -3.523438 15.765625 -3.734375 C 16.035156 -3.953125 16.171875 -4.0625 16.171875 -4.0625 L 16.328125 -3.765625 C 16.328125 -3.765625 16.171875 -3.578125 15.859375 -3.203125 C 15.554688 -2.835938 15.179688 -2.421875 14.734375 -1.953125 C 14.296875 -1.492188 13.882812 -1.117188 13.5 -0.828125 C 13.019531 -0.453125 12.570312 -0.148438 12.15625 0.078125 C 11.75 0.316406 11.488281 0.457031 11.375 0.5 L 11.375 0.53125 Z M 4.15625 -1.234375 C 4.3125 -1.234375 4.59375 -1.414062 5 -1.78125 C 5.414062 -2.144531 5.898438 -2.613281 6.453125 -3.1875 C 7.003906 -3.769531 7.570312 -4.375 8.15625 -5 C 8.75 -5.632812 9.300781 -6.238281 9.8125 -6.8125 C 10.320312 -7.394531 10.722656 -7.851562 11.015625 -8.1875 L 12.203125 -11.9375 C 12.078125 -11.988281 11.898438 -12.035156 11.671875 -12.078125 C 11.453125 -12.117188 11.15625 -12.140625 10.78125 -12.140625 C 10.050781 -12.140625 9.285156 -11.875 8.484375 -11.34375 C 7.679688 -10.8125 6.9375 -10.082031 6.25 -9.15625 C 5.5625 -8.238281 5.003906 -7.191406 4.578125 -6.015625 C 4.160156 -4.847656 3.953125 -3.617188 3.953125 -2.328125 C 3.953125 -1.773438 3.984375 -1.453125 4.046875 -1.359375 C 4.117188 -1.273438 4.15625 -1.234375 4.15625 -1.234375 Z M 4.15625 -1.234375 "/></g></g></g><g fill="#764ba2" fill-opacity="0.4"><g transform="translate(129.030031, 181.136619)"><g><path d="M 12.703125 -13.46875 C 12.597656 -13.207031 12.410156 -12.707031 12.140625 -11.96875 C 11.878906 -11.238281 11.550781 -10.40625 11.15625 -9.46875 C 10.769531 -8.539062 10.3125 -7.625 9.78125 -6.71875 C 8.445312 -4.5 7.296875 -2.773438 6.328125 -1.546875 C 5.367188 -0.316406 4.800781 0.304688 4.625 0.328125 C 4.332031 0.242188 4.117188 0.175781 3.984375 0.125 C 3.859375 0.0820312 3.539062 -0.046875 3.03125 -0.265625 C 2.675781 -0.421875 2.359375 -0.597656 2.078125 -0.796875 C 1.796875 -0.992188 1.65625 -1.09375 1.65625 -1.09375 L 2.296875 -14.9375 C 2.296875 -14.9375 2.421875 -14.890625 2.671875 -14.796875 C 2.929688 -14.710938 3.25 -14.609375 3.625 -14.484375 C 4 -14.359375 4.359375 -14.226562 4.703125 -14.09375 C 5.046875 -13.96875 5.316406 -13.859375 5.515625 -13.765625 C 5.898438 -13.566406 6.101562 -13.378906 6.125 -13.203125 C 6.164062 -13.003906 6.171875 -12.582031 6.140625 -11.9375 C 6.109375 -11.300781 6.039062 -10.53125 5.9375 -9.625 C 5.832031 -8.726562 5.71875 -7.78125 5.59375 -6.78125 C 5.476562 -5.789062 5.359375 -4.828125 5.234375 -3.890625 C 5.117188 -2.960938 5.003906 -2.15625 4.890625 -1.46875 C 5.398438 -2.15625 6 -2.953125 6.6875 -3.859375 C 7.375 -4.765625 8.117188 -6.03125 8.921875 -7.65625 C 9.492188 -8.800781 9.941406 -9.914062 10.265625 -11 C 10.585938 -12.09375 10.8125 -13 10.9375 -13.71875 C 11.070312 -14.4375 11.140625 -14.796875 11.140625 -14.796875 L 12.609375 -13.90625 C 12.609375 -13.90625 12.632812 -13.859375 12.6875 -13.765625 C 12.75 -13.679688 12.753906 -13.582031 12.703125 -13.46875 Z M 12.703125 -13.46875 "/></g></g></g><g fill="#764ba2" fill-opacity="0.4"><g transform="translate(138.278653, 181.136619)"><g><path d="M 9.953125 -14.734375 C 10.148438 -14.734375 10.390625 -14.582031 10.671875 -14.28125 C 10.960938 -13.988281 11.25 -13.640625 11.53125 -13.234375 C 11.820312 -12.835938 12.0625 -12.488281 12.25 -12.1875 C 12.445312 -11.894531 12.546875 -11.75 12.546875 -11.75 C 12.546875 -11.75 12.421875 -11.8125 12.171875 -11.9375 C 11.929688 -12.070312 11.445312 -12.140625 10.71875 -12.140625 C 9.976562 -12.140625 9.207031 -11.875 8.40625 -11.34375 C 7.613281 -10.8125 6.875 -10.082031 6.1875 -9.15625 C 5.5 -8.238281 4.9375 -7.191406 4.5 -6.015625 C 4.070312 -4.847656 3.859375 -3.617188 3.859375 -2.328125 C 3.859375 -1.773438 3.898438 -1.453125 3.984375 -1.359375 C 4.078125 -1.273438 4.125 -1.234375 4.125 -1.234375 C 4.125 -1.234375 4.253906 -1.253906 4.515625 -1.296875 C 4.785156 -1.335938 5.097656 -1.492188 5.453125 -1.765625 C 6.722656 -2.515625 7.753906 -3.332031 8.546875 -4.21875 C 9.347656 -5.113281 9.972656 -6 10.421875 -6.875 C 10.878906 -7.75 11.203125 -8.546875 11.390625 -9.265625 C 11.578125 -9.984375 11.691406 -10.5625 11.734375 -11 C 11.785156 -11.445312 11.8125 -11.671875 11.8125 -11.671875 L 12.3125 -11.578125 C 12.3125 -11.578125 12.285156 -11.320312 12.234375 -10.8125 C 12.191406 -10.300781 12.078125 -9.632812 11.890625 -8.8125 C 11.703125 -7.988281 11.390625 -7.09375 10.953125 -6.125 C 10.523438 -5.164062 9.929688 -4.21875 9.171875 -3.28125 C 8.421875 -2.351562 7.457031 -1.535156 6.28125 -0.828125 C 5.625 -0.410156 5.09375 -0.109375 4.6875 0.078125 C 4.289062 0.265625 4.054688 0.382812 3.984375 0.4375 C 3.984375 0.4375 3.972656 0.4375 3.953125 0.4375 C 3.929688 0.4375 3.921875 0.4375 3.921875 0.4375 C 3.785156 0.4375 3.519531 0.320312 3.125 0.09375 C 2.726562 -0.125 2.316406 -0.367188 1.890625 -0.640625 C 1.472656 -0.921875 1.15625 -1.160156 0.9375 -1.359375 C 0.882812 -1.429688 0.835938 -1.644531 0.796875 -2 C 0.753906 -2.351562 0.722656 -2.769531 0.703125 -3.25 C 0.679688 -3.738281 0.671875 -4.195312 0.671875 -4.625 C 0.671875 -6.082031 0.910156 -7.367188 1.390625 -8.484375 C 1.878906 -9.609375 2.503906 -10.566406 3.265625 -11.359375 C 4.035156 -12.148438 4.851562 -12.789062 5.71875 -13.28125 C 6.582031 -13.78125 7.390625 -14.144531 8.140625 -14.375 C 8.898438 -14.613281 9.503906 -14.734375 9.953125 -14.734375 Z M 9.953125 -14.734375 "/></g></g></g><g fill="#764ba2" fill-opacity="0.4"><g transform="translate(148.325741, 181.136619)"><g><path d="M 8.28125 -1.703125 L 10.453125 -8.546875 C 10.066406 -8.078125 9.609375 -7.523438 9.078125 -6.890625 C 8.546875 -6.265625 7.984375 -5.609375 7.390625 -4.921875 C 6.804688 -4.234375 6.238281 -3.570312 5.6875 -2.9375 C 5.132812 -2.3125 4.640625 -1.78125 4.203125 -1.34375 C 3.773438 -0.914062 3.460938 -0.632812 3.265625 -0.5 C 3.109375 -0.1875 2.988281 0.0625 2.90625 0.25 C 2.832031 0.4375 2.796875 0.53125 2.796875 0.53125 C 2.640625 0.375 2.515625 0.257812 2.421875 0.1875 C 2.335938 0.125 2.226562 0.046875 2.09375 -0.046875 C 1.957031 -0.148438 1.738281 -0.320312 1.4375 -0.5625 C 1.144531 -0.78125 0.882812 -1.023438 0.65625 -1.296875 C 0.4375 -1.566406 0.328125 -1.703125 0.328125 -1.703125 L 4.59375 -14.796875 C 4.59375 -14.796875 4.703125 -14.722656 4.921875 -14.578125 C 5.140625 -14.441406 5.414062 -14.257812 5.75 -14.03125 C 6.082031 -13.8125 6.40625 -13.597656 6.71875 -13.390625 C 7.03125 -13.179688 7.265625 -13.007812 7.421875 -12.875 C 7.597656 -12.675781 7.710938 -12.535156 7.765625 -12.453125 C 7.816406 -12.378906 7.84375 -12.273438 7.84375 -12.140625 C 7.84375 -11.921875 7.742188 -11.507812 7.546875 -10.90625 C 7.347656 -10.3125 7.082031 -9.597656 6.75 -8.765625 C 6.414062 -7.929688 6.0625 -7.050781 5.6875 -6.125 C 5.3125 -5.207031 4.9375 -4.332031 4.5625 -3.5 C 5.269531 -4.226562 6.03125 -5.035156 6.84375 -5.921875 C 7.664062 -6.804688 8.445312 -7.65625 9.1875 -8.46875 C 9.9375 -9.28125 10.546875 -9.925781 11.015625 -10.40625 L 12.40625 -14.796875 C 12.40625 -14.796875 12.519531 -14.722656 12.75 -14.578125 C 12.988281 -14.441406 13.273438 -14.257812 13.609375 -14.03125 C 13.941406 -13.8125 14.265625 -13.597656 14.578125 -13.390625 C 14.898438 -13.179688 15.148438 -13.007812 15.328125 -12.875 C 15.484375 -12.675781 15.578125 -12.535156 15.609375 -12.453125 C 15.648438 -12.378906 15.671875 -12.273438 15.671875 -12.140625 C 15.671875 -11.941406 15.578125 -11.546875 15.390625 -10.953125 C 15.203125 -10.367188 14.953125 -9.675781 14.640625 -8.875 C 14.328125 -8.082031 13.988281 -7.234375 13.625 -6.328125 C 13.257812 -5.429688 12.898438 -4.5625 12.546875 -3.71875 C 12.191406 -2.882812 11.867188 -2.132812 11.578125 -1.46875 C 11.710938 -1.488281 11.921875 -1.550781 12.203125 -1.65625 C 12.410156 -1.769531 12.695312 -1.953125 13.0625 -2.203125 C 13.425781 -2.460938 13.789062 -2.726562 14.15625 -3 C 14.519531 -3.28125 14.828125 -3.523438 15.078125 -3.734375 C 15.335938 -3.953125 15.46875 -4.0625 15.46875 -4.0625 L 15.671875 -3.796875 C 15.671875 -3.796875 15.515625 -3.609375 15.203125 -3.234375 C 14.890625 -2.867188 14.507812 -2.453125 14.0625 -1.984375 C 13.625 -1.523438 13.207031 -1.140625 12.8125 -0.828125 C 12.320312 -0.453125 11.875 -0.148438 11.46875 0.078125 C 11.070312 0.316406 10.820312 0.457031 10.71875 0.5 L 10.71875 0.53125 L 10.671875 0.53125 L 10.671875 0.5 C 10.429688 0.300781 10.25 0.160156 10.125 0.078125 C 10.007812 0.00390625 9.738281 -0.207031 9.3125 -0.5625 C 9.070312 -0.78125 8.835938 -1.023438 8.609375 -1.296875 C 8.390625 -1.566406 8.28125 -1.703125 8.28125 -1.703125 Z M 8.28125 -1.703125 "/></g></g></g><g fill="#764ba2" fill-opacity="0.4"><g transform="translate(161.83287, 181.136619)"><g><path d="M 10.28125 -9.640625 L 11.015625 -11.8125 C 10.503906 -11.257812 9.929688 -10.601562 9.296875 -9.84375 C 8.660156 -9.09375 8.019531 -8.316406 7.375 -7.515625 C 6.738281 -6.722656 6.148438 -5.96875 5.609375 -5.25 C 5.066406 -4.539062 4.601562 -3.957031 4.21875 -3.5 C 3.738281 -2.382812 3.328125 -1.429688 2.984375 -0.640625 C 2.640625 0.140625 2.46875 0.53125 2.46875 0.53125 C 2.238281 0.3125 2.050781 0.160156 1.90625 0.078125 C 1.769531 0.00390625 1.5 -0.207031 1.09375 -0.5625 C 0.8125 -0.78125 0.554688 -1.023438 0.328125 -1.296875 C 0.109375 -1.566406 0 -1.703125 0 -1.703125 L 4.21875 -14.796875 C 4.21875 -14.796875 4.328125 -14.722656 4.546875 -14.578125 C 4.773438 -14.441406 5.050781 -14.257812 5.375 -14.03125 C 5.695312 -13.8125 6.007812 -13.597656 6.3125 -13.390625 C 6.625 -13.179688 6.859375 -13.007812 7.015625 -12.875 C 7.242188 -12.675781 7.378906 -12.535156 7.421875 -12.453125 C 7.460938 -12.378906 7.484375 -12.273438 7.484375 -12.140625 C 7.484375 -11.921875 7.378906 -11.492188 7.171875 -10.859375 C 6.960938 -10.222656 6.691406 -9.476562 6.359375 -8.625 C 6.023438 -7.78125 5.65625 -6.890625 5.25 -5.953125 C 5.757812 -6.640625 6.335938 -7.414062 6.984375 -8.28125 C 7.628906 -9.144531 8.269531 -10 8.90625 -10.84375 C 9.550781 -11.6875 10.132812 -12.414062 10.65625 -13.03125 C 11.175781 -13.65625 11.570312 -14.066406 11.84375 -14.265625 L 12.015625 -14.796875 C 12.015625 -14.796875 12.191406 -14.6875 12.546875 -14.46875 C 12.898438 -14.25 13.28125 -13.992188 13.6875 -13.703125 C 14.09375 -13.410156 14.398438 -13.175781 14.609375 -13 C 14.785156 -12.851562 14.898438 -12.742188 14.953125 -12.671875 C 15.003906 -12.609375 15.03125 -12.507812 15.03125 -12.375 C 15.03125 -12.039062 14.898438 -11.613281 14.640625 -11.09375 C 14.390625 -10.570312 14.097656 -10.039062 13.765625 -9.5 C 13.429688 -8.957031 13.140625 -8.5 12.890625 -8.125 C 12.640625 -7.757812 12.515625 -7.578125 12.515625 -7.578125 C 12.359375 -7.710938 12.234375 -7.800781 12.140625 -7.84375 C 12.054688 -7.894531 11.953125 -7.960938 11.828125 -8.046875 C 11.703125 -8.140625 11.507812 -8.304688 11.25 -8.546875 C 11.019531 -8.765625 10.800781 -9 10.59375 -9.25 C 10.382812 -9.507812 10.28125 -9.640625 10.28125 -9.640625 Z M 10.28125 -9.640625 "/></g></g></g><g fill="#764ba2" fill-opacity="0.4"><g transform="translate(172.711703, 181.136619)"><g/></g></g><g fill="#764ba2" fill-opacity="0.4"><g transform="translate(176.870074, 181.136619)"><g><path d="M 24.1875 -1.96875 L 29.4375 -18.421875 C 28.90625 -17.535156 28.132812 -16.363281 27.125 -14.90625 C 26.113281 -13.457031 24.734375 -11.679688 22.984375 -9.578125 C 21.429688 -7.691406 20.132812 -6.003906 19.09375 -4.515625 C 18.050781 -3.035156 17.242188 -1.867188 16.671875 -1.015625 C 16.109375 -0.160156 15.785156 0.265625 15.703125 0.265625 C 15.546875 0.128906 15.414062 0.0351562 15.3125 -0.015625 C 15.21875 -0.0664062 15.101562 -0.144531 14.96875 -0.25 C 14.832031 -0.351562 14.625 -0.535156 14.34375 -0.796875 C 14.050781 -1.046875 13.785156 -1.300781 13.546875 -1.5625 C 13.316406 -1.832031 13.203125 -1.96875 13.203125 -1.96875 L 18.6875 -19.125 C 18.226562 -18.300781 17.460938 -17.101562 16.390625 -15.53125 C 15.328125 -13.957031 13.8125 -11.972656 11.84375 -9.578125 C 10.6875 -8.160156 9.519531 -6.851562 8.34375 -5.65625 C 7.175781 -4.457031 6.101562 -3.414062 5.125 -2.53125 C 4.144531 -1.644531 3.34375 -0.957031 2.71875 -0.46875 C 2.101562 0.0195312 1.765625 0.265625 1.703125 0.265625 C 1.628906 0.265625 1.46875 0.171875 1.21875 -0.015625 C 0.976562 -0.203125 0.707031 -0.414062 0.40625 -0.65625 C 0.113281 -0.90625 -0.132812 -1.132812 -0.34375 -1.34375 C -0.5625 -1.550781 -0.671875 -1.691406 -0.671875 -1.765625 C -0.671875 -1.828125 -0.640625 -2.101562 -0.578125 -2.59375 C -0.523438 -3.082031 -0.453125 -3.640625 -0.359375 -4.265625 C -0.273438 -4.898438 -0.179688 -5.492188 -0.078125 -6.046875 C 0.015625 -6.609375 0.0976562 -6.988281 0.171875 -7.1875 C 0.210938 -7.269531 0.269531 -7.34375 0.34375 -7.40625 C 0.425781 -7.476562 0.46875 -7.515625 0.46875 -7.515625 C 0.550781 -7.515625 0.753906 -7.40625 1.078125 -7.1875 C 1.398438 -6.96875 1.742188 -6.703125 2.109375 -6.390625 C 2.472656 -6.078125 2.785156 -5.796875 3.046875 -5.546875 C 3.316406 -5.304688 3.453125 -5.164062 3.453125 -5.125 C 3.453125 -5.082031 3.394531 -4.90625 3.28125 -4.59375 C 3.175781 -4.28125 3.054688 -3.9375 2.921875 -3.5625 C 2.796875 -3.1875 2.675781 -2.851562 2.5625 -2.5625 C 2.445312 -2.269531 2.390625 -2.125 2.390625 -2.125 C 2.390625 -2.125 2.628906 -2.3125 3.109375 -2.6875 C 3.585938 -3.070312 4.234375 -3.628906 5.046875 -4.359375 C 5.867188 -5.085938 6.789062 -5.96875 7.8125 -7 C 8.832031 -8.03125 9.890625 -9.210938 10.984375 -10.546875 C 12.285156 -12.140625 13.484375 -13.703125 14.578125 -15.234375 C 15.679688 -16.765625 16.640625 -18.160156 17.453125 -19.421875 C 18.273438 -20.691406 18.921875 -21.71875 19.390625 -22.5 C 19.859375 -23.289062 20.125 -23.738281 20.1875 -23.84375 L 20.21875 -23.890625 L 20.21875 -23.84375 L 20.21875 -23.890625 C 20.21875 -23.890625 20.332031 -23.8125 20.5625 -23.65625 C 20.800781 -23.5 21.09375 -23.300781 21.4375 -23.0625 C 21.78125 -22.832031 22.113281 -22.609375 22.4375 -22.390625 C 22.757812 -22.171875 23 -21.984375 23.15625 -21.828125 C 23.332031 -21.671875 23.441406 -21.546875 23.484375 -21.453125 C 23.523438 -21.367188 23.546875 -21.25 23.546875 -21.09375 C 23.546875 -20.914062 23.4375 -20.476562 23.21875 -19.78125 C 23 -19.082031 22.695312 -18.203125 22.3125 -17.140625 C 21.9375 -16.085938 21.515625 -14.9375 21.046875 -13.6875 C 20.585938 -12.4375 20.109375 -11.15625 19.609375 -9.84375 C 19.109375 -8.539062 18.625 -7.289062 18.15625 -6.09375 C 18.488281 -6.394531 18.96875 -6.875 19.59375 -7.53125 C 20.21875 -8.1875 21.070312 -9.191406 22.15625 -10.546875 C 23.46875 -12.140625 24.660156 -13.703125 25.734375 -15.234375 C 26.804688 -16.765625 27.734375 -18.160156 28.515625 -19.421875 C 29.304688 -20.691406 29.925781 -21.71875 30.375 -22.5 C 30.832031 -23.289062 31.097656 -23.738281 31.171875 -23.84375 L 31.203125 -23.890625 C 31.203125 -23.890625 31.316406 -23.8125 31.546875 -23.65625 C 31.785156 -23.5 32.078125 -23.300781 32.421875 -23.0625 C 32.765625 -22.832031 33.09375 -22.609375 33.40625 -22.390625 C 33.726562 -22.171875 33.96875 -21.984375 34.125 -21.828125 C 34.300781 -21.671875 34.410156 -21.546875 34.453125 -21.453125 C 34.503906 -21.367188 34.53125 -21.25 34.53125 -21.09375 C 34.53125 -20.894531 34.382812 -20.363281 34.09375 -19.5 C 33.8125 -18.632812 33.4375 -17.554688 32.96875 -16.265625 C 32.5 -14.984375 31.988281 -13.597656 31.4375 -12.109375 C 30.882812 -10.617188 30.328125 -9.144531 29.765625 -7.6875 C 29.210938 -6.238281 28.703125 -4.910156 28.234375 -3.703125 C 27.773438 -2.492188 27.398438 -1.53125 27.109375 -0.8125 C 26.816406 -0.09375 26.671875 0.265625 26.671875 0.265625 C 26.523438 0.128906 26.398438 0.0351562 26.296875 -0.015625 C 26.191406 -0.0664062 26.070312 -0.144531 25.9375 -0.25 C 25.8125 -0.351562 25.601562 -0.535156 25.3125 -0.796875 C 25.019531 -1.046875 24.757812 -1.300781 24.53125 -1.5625 C 24.300781 -1.832031 24.1875 -1.96875 24.1875 -1.96875 Z M 24.1875 -1.96875 "/></g></g></g><g fill="#764ba2" fill-opacity="0.4"><g transform="translate(207.577568, 181.136619)"><g><path d="M 11.34375 0.53125 L 11.34375 0.5 C 11.125 0.320312 10.953125 0.191406 10.828125 0.109375 C 10.703125 0.0351562 10.429688 -0.164062 10.015625 -0.5 C 9.722656 -0.738281 9.46875 -0.988281 9.25 -1.25 C 9.03125 -1.519531 8.921875 -1.65625 8.921875 -1.65625 L 10.484375 -6.484375 C 10.015625 -5.835938 9.457031 -5.117188 8.8125 -4.328125 C 8.164062 -3.546875 7.515625 -2.789062 6.859375 -2.0625 C 6.210938 -1.332031 5.632812 -0.734375 5.125 -0.265625 C 4.613281 0.203125 4.257812 0.4375 4.0625 0.4375 C 3.925781 0.4375 3.648438 0.320312 3.234375 0.09375 C 2.828125 -0.125 2.410156 -0.367188 1.984375 -0.640625 C 1.566406 -0.921875 1.238281 -1.160156 1 -1.359375 C 0.925781 -1.429688 0.867188 -1.644531 0.828125 -2 C 0.785156 -2.351562 0.75 -2.769531 0.71875 -3.25 C 0.6875 -3.738281 0.671875 -4.195312 0.671875 -4.625 C 0.671875 -6.082031 0.910156 -7.367188 1.390625 -8.484375 C 1.878906 -9.609375 2.507812 -10.566406 3.28125 -11.359375 C 4.0625 -12.148438 4.882812 -12.789062 5.75 -13.28125 C 6.613281 -13.78125 7.425781 -14.144531 8.1875 -14.375 C 8.957031 -14.613281 9.566406 -14.734375 10.015625 -14.734375 C 10.210938 -14.734375 10.453125 -14.582031 10.734375 -14.28125 C 11.023438 -13.988281 11.316406 -13.644531 11.609375 -13.25 C 11.898438 -12.863281 12.132812 -12.523438 12.3125 -12.234375 L 13.140625 -14.796875 C 13.140625 -14.796875 13.253906 -14.71875 13.484375 -14.5625 C 13.722656 -14.414062 14.007812 -14.234375 14.34375 -14.015625 C 14.675781 -13.804688 14.988281 -13.59375 15.28125 -13.375 C 15.582031 -13.15625 15.8125 -12.976562 15.96875 -12.84375 C 16.144531 -12.664062 16.25 -12.53125 16.28125 -12.4375 C 16.3125 -12.351562 16.328125 -12.222656 16.328125 -12.046875 C 16.328125 -11.847656 16.234375 -11.457031 16.046875 -10.875 C 15.859375 -10.300781 15.609375 -9.613281 15.296875 -8.8125 C 14.992188 -8.019531 14.65625 -7.171875 14.28125 -6.265625 C 13.914062 -5.367188 13.550781 -4.492188 13.1875 -3.640625 C 12.820312 -2.785156 12.492188 -2.035156 12.203125 -1.390625 C 12.316406 -1.441406 12.421875 -1.484375 12.515625 -1.515625 C 12.617188 -1.546875 12.738281 -1.59375 12.875 -1.65625 C 13.070312 -1.769531 13.351562 -1.953125 13.71875 -2.203125 C 14.082031 -2.460938 14.445312 -2.726562 14.8125 -3 C 15.1875 -3.28125 15.503906 -3.523438 15.765625 -3.734375 C 16.035156 -3.953125 16.171875 -4.0625 16.171875 -4.0625 L 16.328125 -3.765625 C 16.328125 -3.765625 16.171875 -3.578125 15.859375 -3.203125 C 15.554688 -2.835938 15.179688 -2.421875 14.734375 -1.953125 C 14.296875 -1.492188 13.882812 -1.117188 13.5 -0.828125 C 13.019531 -0.453125 12.570312 -0.148438 12.15625 0.078125 C 11.75 0.316406 11.488281 0.457031 11.375 0.5 L 11.375 0.53125 Z M 4.15625 -1.234375 C 4.3125 -1.234375 4.59375 -1.414062 5 -1.78125 C 5.414062 -2.144531 5.898438 -2.613281 6.453125 -3.1875 C 7.003906 -3.769531 7.570312 -4.375 8.15625 -5 C 8.75 -5.632812 9.300781 -6.238281 9.8125 -6.8125 C 10.320312 -7.394531 10.722656 -7.851562 11.015625 -8.1875 L 12.203125 -11.9375 C 12.078125 -11.988281 11.898438 -12.035156 11.671875 -12.078125 C 11.453125 -12.117188 11.15625 -12.140625 10.78125 -12.140625 C 10.050781 -12.140625 9.285156 -11.875 8.484375 -11.34375 C 7.679688 -10.8125 6.9375 -10.082031 6.25 -9.15625 C 5.5625 -8.238281 5.003906 -7.191406 4.578125 -6.015625 C 4.160156 -4.847656 3.953125 -3.617188 3.953125 -2.328125 C 3.953125 -1.773438 3.984375 -1.453125 4.046875 -1.359375 C 4.117188 -1.273438 4.15625 -1.234375 4.15625 -1.234375 Z M 4.15625 -1.234375 "/></g></g></g><g fill="#764ba2" fill-opacity="0.4"><g transform="translate(221.75008, 181.136619)"><g><path d="M 11.96875 -14.578125 C 12.144531 -14.578125 12.390625 -14.53125 12.703125 -14.4375 C 13.015625 -14.34375 13.296875 -14.222656 13.546875 -14.078125 C 13.804688 -13.941406 13.9375 -13.804688 13.9375 -13.671875 C 13.9375 -13.554688 13.832031 -13.28125 13.625 -12.84375 C 13.414062 -12.414062 13.15625 -11.945312 12.84375 -11.4375 C 12.53125 -10.925781 12.226562 -10.484375 11.9375 -10.109375 C 11.65625 -9.734375 11.4375 -9.546875 11.28125 -9.546875 C 10.675781 -9.546875 10.375 -9.601562 10.375 -9.71875 C 10.375 -9.78125 10.492188 -10.015625 10.734375 -10.421875 C 10.984375 -10.835938 11.164062 -11.191406 11.28125 -11.484375 C 11.34375 -11.609375 11.398438 -11.757812 11.453125 -11.9375 C 11.515625 -12.113281 11.566406 -12.289062 11.609375 -12.46875 C 11.234375 -12.09375 10.78125 -11.625 10.25 -11.0625 C 9.71875 -10.5 9.160156 -9.90625 8.578125 -9.28125 C 8.648438 -8.375 8.710938 -7.429688 8.765625 -6.453125 C 8.816406 -5.472656 8.867188 -4.539062 8.921875 -3.65625 C 8.984375 -2.769531 9.023438 -1.992188 9.046875 -1.328125 C 9.160156 -1.328125 9.363281 -1.359375 9.65625 -1.421875 C 9.957031 -1.492188 10.285156 -1.609375 10.640625 -1.765625 C 10.867188 -1.847656 11.164062 -2.007812 11.53125 -2.25 C 11.894531 -2.5 12.257812 -2.769531 12.625 -3.0625 C 12.988281 -3.351562 13.296875 -3.601562 13.546875 -3.8125 C 13.804688 -4.019531 13.9375 -4.125 13.9375 -4.125 L 14.265625 -3.828125 C 14.265625 -3.828125 14.097656 -3.648438 13.765625 -3.296875 C 13.429688 -2.941406 13.03125 -2.535156 12.5625 -2.078125 C 12.101562 -1.617188 11.6875 -1.238281 11.3125 -0.9375 C 10.707031 -0.46875 10.1875 -0.125 9.75 0.09375 C 9.320312 0.320312 9.109375 0.4375 9.109375 0.4375 C 8.828125 0.363281 8.613281 0.3125 8.46875 0.28125 C 8.320312 0.25 7.992188 0.15625 7.484375 0 C 7.128906 -0.113281 6.796875 -0.253906 6.484375 -0.421875 C 6.171875 -0.585938 6.015625 -0.671875 6.015625 -0.671875 L 5.328125 -5.59375 L 5.0625 -5.25 C 4.65625 -4.71875 4.195312 -4.125 3.6875 -3.46875 C 3.175781 -2.820312 2.679688 -2.203125 2.203125 -1.609375 C 1.734375 -1.023438 1.347656 -0.535156 1.046875 -0.140625 C 0.742188 0.242188 0.59375 0.4375 0.59375 0.4375 L -0.328125 -0.671875 C -0.328125 -0.753906 -0.0664062 -1.078125 0.453125 -1.640625 C 0.972656 -2.210938 1.65625 -2.9375 2.5 -3.8125 C 3.34375 -4.6875 4.226562 -5.613281 5.15625 -6.59375 L 4.125 -13.734375 C 3.851562 -13.578125 3.519531 -13.347656 3.125 -13.046875 C 2.726562 -12.753906 2.320312 -12.445312 1.90625 -12.125 C 1.5 -11.800781 1.160156 -11.519531 0.890625 -11.28125 C 0.628906 -11.050781 0.5 -10.9375 0.5 -10.9375 C 0.5 -10.9375 0.441406 -11 0.328125 -11.125 C 0.222656 -11.25 0.191406 -11.320312 0.234375 -11.34375 C 0.347656 -11.457031 0.597656 -11.691406 0.984375 -12.046875 C 1.367188 -12.398438 1.789062 -12.789062 2.25 -13.21875 C 2.71875 -13.65625 3.125 -14.023438 3.46875 -14.328125 C 3.8125 -14.640625 3.984375 -14.796875 3.984375 -14.796875 C 3.984375 -14.796875 4.125 -14.773438 4.40625 -14.734375 C 4.6875 -14.691406 5.019531 -14.632812 5.40625 -14.5625 C 5.789062 -14.5 6.171875 -14.425781 6.546875 -14.34375 C 6.929688 -14.269531 7.234375 -14.203125 7.453125 -14.140625 C 7.691406 -14.046875 7.84375 -13.972656 7.90625 -13.921875 C 7.976562 -13.867188 8.023438 -13.785156 8.046875 -13.671875 C 8.140625 -13.472656 8.222656 -13.054688 8.296875 -12.421875 C 8.378906 -11.796875 8.453125 -11.023438 8.515625 -10.109375 C 9.296875 -10.953125 9.988281 -11.71875 10.59375 -12.40625 C 11.207031 -13.09375 11.644531 -13.625 11.90625 -14 C 11.925781 -14.175781 11.941406 -14.316406 11.953125 -14.421875 C 11.960938 -14.523438 11.96875 -14.578125 11.96875 -14.578125 Z M 11.96875 -14.578125 "/></g></g></g><g fill="#764ba2" fill-opacity="0.4"><g transform="translate(232.529097, 181.136619)"><g><path d="M 3.03125 -12.34375 C 3.03125 -12.34375 3.269531 -12.363281 3.75 -12.40625 C 4.238281 -12.445312 4.890625 -12.492188 5.703125 -12.546875 C 6.515625 -12.609375 7.410156 -12.644531 8.390625 -12.65625 C 9.378906 -12.664062 10.378906 -12.632812 11.390625 -12.5625 C 12.398438 -12.5 13.347656 -12.367188 14.234375 -12.171875 L 14.234375 -10.875 C 14.234375 -10.875 14.207031 -10.878906 14.15625 -10.890625 C 14.101562 -10.898438 13.921875 -10.910156 13.609375 -10.921875 C 13.296875 -10.929688 12.757812 -10.941406 12 -10.953125 C 11.25 -10.972656 10.175781 -10.984375 8.78125 -10.984375 C 8.382812 -10.984375 7.828125 -10.957031 7.109375 -10.90625 C 6.398438 -10.863281 5.679688 -10.804688 4.953125 -10.734375 C 4.222656 -10.671875 3.601562 -10.617188 3.09375 -10.578125 C 2.582031 -10.535156 2.328125 -10.515625 2.328125 -10.515625 Z M 3.03125 -12.34375 "/></g></g></g><g fill="#764ba2" fill-opacity="0.4"><g transform="translate(243.308115, 181.136619)"><g><path d="M 8.421875 0.265625 C 8.265625 0.242188 7.953125 0.148438 7.484375 -0.015625 C 7.015625 -0.179688 6.535156 -0.378906 6.046875 -0.609375 C 5.566406 -0.847656 5.210938 -1.078125 4.984375 -1.296875 C 4.941406 -1.335938 4.796875 -1.554688 4.546875 -1.953125 C 4.304688 -2.359375 4.039062 -2.863281 3.75 -3.46875 C 3.46875 -4.082031 3.210938 -4.742188 2.984375 -5.453125 C 2.765625 -6.160156 2.65625 -6.835938 2.65625 -7.484375 C 2.65625 -9.640625 2.929688 -11.539062 3.484375 -13.1875 C 4.046875 -14.84375 4.773438 -16.273438 5.671875 -17.484375 C 6.566406 -18.691406 7.539062 -19.703125 8.59375 -20.515625 C 9.644531 -21.335938 10.679688 -22 11.703125 -22.5 C 12.722656 -23 13.632812 -23.351562 14.4375 -23.5625 C 15.238281 -23.78125 15.816406 -23.890625 16.171875 -23.890625 C 16.347656 -23.890625 16.570312 -23.742188 16.84375 -23.453125 C 17.125 -23.160156 17.398438 -22.828125 17.671875 -22.453125 C 17.953125 -22.078125 18.1875 -21.742188 18.375 -21.453125 C 18.5625 -21.171875 18.65625 -21.03125 18.65625 -21.03125 C 17.769531 -21.289062 16.789062 -21.21875 15.71875 -20.8125 C 14.644531 -20.414062 13.570312 -19.765625 12.5 -18.859375 C 11.4375 -17.953125 10.472656 -16.847656 9.609375 -15.546875 C 8.742188 -14.253906 8.066406 -12.816406 7.578125 -11.234375 C 7.097656 -9.660156 6.882812 -8.007812 6.9375 -6.28125 C 6.988281 -4.550781 7.414062 -2.8125 8.21875 -1.0625 C 8.21875 -1.0625 8.234375 -1.066406 8.265625 -1.078125 C 8.296875 -1.085938 8.320312 -1.101562 8.34375 -1.125 C 8.550781 -1.21875 8.945312 -1.445312 9.53125 -1.8125 C 10.113281 -2.175781 10.816406 -2.738281 11.640625 -3.5 C 12.460938 -4.269531 13.34375 -5.285156 14.28125 -6.546875 C 15.226562 -7.816406 16.164062 -9.382812 17.09375 -11.25 C 17.65625 -12.375 18.003906 -13.441406 18.140625 -14.453125 C 18.285156 -15.460938 18.316406 -16.351562 18.234375 -17.125 C 18.160156 -17.90625 18.054688 -18.519531 17.921875 -18.96875 C 17.796875 -19.425781 17.734375 -19.65625 17.734375 -19.65625 L 18.65625 -19.953125 C 18.65625 -19.953125 18.722656 -19.703125 18.859375 -19.203125 C 18.992188 -18.710938 19.097656 -18.039062 19.171875 -17.1875 C 19.253906 -16.332031 19.238281 -15.367188 19.125 -14.296875 C 19.019531 -13.234375 18.710938 -12.128906 18.203125 -10.984375 C 17.203125 -8.648438 16.050781 -6.71875 14.75 -5.1875 C 13.457031 -3.65625 12.273438 -2.46875 11.203125 -1.625 C 10.984375 -1.40625 10.753906 -1.207031 10.515625 -1.03125 C 10.003906 -0.632812 9.539062 -0.328125 9.125 -0.109375 C 8.71875 0.0976562 8.484375 0.222656 8.421875 0.265625 Z M 8.421875 0.265625 "/></g></g></g><g fill="#764ba2" fill-opacity="0.4"><g transform="translate(260.042386, 181.136619)"><g><path d="M 3.125 0.53125 C 2.945312 0.375 2.804688 0.257812 2.703125 0.1875 C 2.609375 0.125 2.5 0.046875 2.375 -0.046875 C 2.257812 -0.148438 2.066406 -0.320312 1.796875 -0.5625 C 1.503906 -0.78125 1.242188 -1.023438 1.015625 -1.296875 C 0.785156 -1.566406 0.671875 -1.703125 0.671875 -1.703125 L 4.59375 -13 C 4.0625 -12.875 3.566406 -12.710938 3.109375 -12.515625 C 2.648438 -12.328125 2.300781 -12.113281 2.0625 -11.875 L 1.890625 -13.765625 C 1.890625 -13.765625 2.203125 -13.882812 2.828125 -14.125 C 3.453125 -14.375 4.238281 -14.566406 5.1875 -14.703125 L 6.359375 -18.03125 C 6.359375 -18.03125 6.546875 -17.90625 6.921875 -17.65625 C 7.296875 -17.414062 7.710938 -17.140625 8.171875 -16.828125 C 8.640625 -16.515625 8.988281 -16.257812 9.21875 -16.0625 C 9.394531 -15.882812 9.503906 -15.742188 9.546875 -15.640625 C 9.585938 -15.546875 9.609375 -15.441406 9.609375 -15.328125 C 9.609375 -15.242188 9.554688 -15.015625 9.453125 -14.640625 C 10.160156 -14.546875 10.785156 -14.460938 11.328125 -14.390625 C 11.867188 -14.328125 12.140625 -14.296875 12.140625 -14.296875 L 11.84375 -13.765625 C 11.84375 -13.765625 11.582031 -13.757812 11.0625 -13.75 C 10.539062 -13.738281 9.890625 -13.710938 9.109375 -13.671875 C 8.847656 -12.921875 8.5 -12.007812 8.0625 -10.9375 C 7.632812 -9.875 7.171875 -8.757812 6.671875 -7.59375 C 6.171875 -6.4375 5.6875 -5.316406 5.21875 -4.234375 C 4.757812 -3.160156 4.347656 -2.226562 3.984375 -1.4375 L 4.65625 -1.65625 C 4.851562 -1.769531 5.132812 -1.953125 5.5 -2.203125 C 5.863281 -2.460938 6.234375 -2.726562 6.609375 -3 C 6.992188 -3.28125 7.3125 -3.523438 7.5625 -3.734375 C 7.820312 -3.953125 7.953125 -4.0625 7.953125 -4.0625 L 8.1875 -3.796875 C 8.1875 -3.796875 8.023438 -3.609375 7.703125 -3.234375 C 7.378906 -2.867188 6.992188 -2.453125 6.546875 -1.984375 C 6.109375 -1.523438 5.691406 -1.140625 5.296875 -0.828125 C 4.734375 -0.410156 4.226562 -0.0820312 3.78125 0.15625 C 3.34375 0.40625 3.125 0.53125 3.125 0.53125 Z M 3.125 0.53125 "/></g></g></g><g fill="#764ba2" fill-opacity="0.4"><g transform="translate(267.361363, 181.136619)"><g><path d="M 2.734375 0.53125 L 2.734375 0.46875 C 2.503906 0.289062 2.328125 0.160156 2.203125 0.078125 C 2.085938 0.00390625 1.804688 -0.207031 1.359375 -0.5625 C 1.097656 -0.78125 0.859375 -1.023438 0.640625 -1.296875 C 0.429688 -1.566406 0.328125 -1.703125 0.328125 -1.703125 L 4.53125 -14.796875 C 4.53125 -14.796875 4.640625 -14.722656 4.859375 -14.578125 C 5.078125 -14.441406 5.351562 -14.257812 5.6875 -14.03125 C 6.019531 -13.8125 6.34375 -13.597656 6.65625 -13.390625 C 6.96875 -13.179688 7.203125 -13.007812 7.359375 -12.875 C 7.535156 -12.675781 7.65625 -12.535156 7.71875 -12.453125 C 7.78125 -12.378906 7.8125 -12.273438 7.8125 -12.140625 C 7.8125 -11.941406 7.71875 -11.546875 7.53125 -10.953125 C 7.34375 -10.367188 7.09375 -9.675781 6.78125 -8.875 C 6.476562 -8.082031 6.132812 -7.234375 5.75 -6.328125 C 5.375 -5.429688 5.003906 -4.5625 4.640625 -3.71875 C 4.273438 -2.882812 3.945312 -2.132812 3.65625 -1.46875 C 3.832031 -1.488281 4.046875 -1.550781 4.296875 -1.65625 C 4.492188 -1.769531 4.769531 -1.953125 5.125 -2.203125 C 5.476562 -2.460938 5.84375 -2.726562 6.21875 -3 C 6.59375 -3.28125 6.90625 -3.523438 7.15625 -3.734375 C 7.414062 -3.953125 7.546875 -4.0625 7.546875 -4.0625 L 7.8125 -3.796875 C 7.8125 -3.796875 7.644531 -3.609375 7.3125 -3.234375 C 6.976562 -2.867188 6.585938 -2.453125 6.140625 -1.984375 C 5.703125 -1.523438 5.296875 -1.140625 4.921875 -0.828125 C 4.429688 -0.472656 3.988281 -0.179688 3.59375 0.046875 C 3.195312 0.285156 2.929688 0.4375 2.796875 0.5 L 2.796875 0.53125 L 2.765625 0.5 Z M 6.21875 -20.828125 C 6.488281 -20.828125 6.8125 -20.671875 7.1875 -20.359375 C 7.5625 -20.046875 7.945312 -19.742188 8.34375 -19.453125 C 8.726562 -19.210938 9.050781 -18.953125 9.3125 -18.671875 C 9.582031 -18.398438 9.769531 -18.15625 9.875 -17.9375 C 9.925781 -17.84375 9.890625 -17.625 9.765625 -17.28125 C 9.640625 -16.9375 9.484375 -16.554688 9.296875 -16.140625 C 9.109375 -15.734375 8.929688 -15.375 8.765625 -15.0625 C 8.597656 -14.757812 8.484375 -14.609375 8.421875 -14.609375 C 8.328125 -14.609375 8.113281 -14.71875 7.78125 -14.9375 C 7.445312 -15.15625 7.082031 -15.414062 6.6875 -15.71875 C 6.289062 -16.019531 5.945312 -16.304688 5.65625 -16.578125 C 5.363281 -16.859375 5.21875 -17.054688 5.21875 -17.171875 C 5.21875 -17.273438 5.265625 -17.515625 5.359375 -17.890625 C 5.460938 -18.273438 5.582031 -18.691406 5.71875 -19.140625 C 5.851562 -19.597656 5.96875 -19.992188 6.0625 -20.328125 C 6.164062 -20.660156 6.21875 -20.828125 6.21875 -20.828125 Z M 6.21875 -20.828125 "/></g></g></g><g fill="#764ba2" fill-opacity="0.4"><g transform="translate(273.449368, 181.136619)"><g><path d="M 3.53125 -12.46875 C 3.4375 -12.5625 3.414062 -12.726562 3.46875 -12.96875 C 3.53125 -13.21875 3.609375 -13.453125 3.703125 -13.671875 C 3.804688 -13.890625 3.859375 -14 3.859375 -14 L 10.34375 -9.609375 L 10.375 -9.640625 L 13.109375 -7.75 L 4.0625 -0.265625 C 4.0625 -0.265625 3.945312 -0.367188 3.71875 -0.578125 C 3.5 -0.785156 3.25 -1.035156 2.96875 -1.328125 C 2.695312 -1.617188 2.460938 -1.867188 2.265625 -2.078125 C 2.066406 -2.285156 1.988281 -2.390625 2.03125 -2.390625 C 2.070312 -2.390625 2.3125 -2.570312 2.75 -2.9375 C 3.195312 -3.3125 3.757812 -3.78125 4.4375 -4.34375 C 5.113281 -4.90625 5.804688 -5.484375 6.515625 -6.078125 C 7.222656 -6.679688 7.859375 -7.222656 8.421875 -7.703125 C 8.992188 -8.179688 9.390625 -8.519531 9.609375 -8.71875 Z M 3.53125 -12.46875 "/></g></g></g><g fill="#ff914d" fill-opacity="1"><g transform="translate(90.334233, 179.901389)"><g><path d="M 1.65625 -6.8125 L 10.75 -14.34375 C 10.75 -14.34375 10.851562 -14.226562 11.0625 -14 C 11.269531 -13.78125 11.507812 -13.53125 11.78125 -13.25 C 12.0625 -12.976562 12.296875 -12.726562 12.484375 -12.5 C 12.679688 -12.28125 12.742188 -12.171875 12.671875 -12.171875 C 12.648438 -12.171875 12.410156 -11.988281 11.953125 -11.625 C 11.503906 -11.257812 10.941406 -10.785156 10.265625 -10.203125 C 9.585938 -9.628906 8.894531 -9.039062 8.1875 -8.4375 C 7.476562 -7.84375 6.835938 -7.300781 6.265625 -6.8125 C 5.703125 -6.332031 5.3125 -6.003906 5.09375 -5.828125 L 11.203125 -2.15625 C 11.316406 -2.070312 11.34375 -1.898438 11.28125 -1.640625 C 11.226562 -1.390625 11.15625 -1.148438 11.0625 -0.921875 C 10.976562 -0.703125 10.9375 -0.59375 10.9375 -0.59375 Z M 1.65625 -6.8125 "/></g></g></g><g fill="#ff914d" fill-opacity="1"><g transform="translate(100.21497, 179.901389)"><g><path d="M 17.703125 -23.890625 C 17.898438 -23.890625 18.171875 -23.832031 18.515625 -23.71875 C 18.859375 -23.601562 19.171875 -23.460938 19.453125 -23.296875 C 19.742188 -23.128906 19.890625 -22.96875 19.890625 -22.8125 C 19.890625 -22.707031 19.765625 -22.40625 19.515625 -21.90625 C 19.273438 -21.40625 18.984375 -20.851562 18.640625 -20.25 C 18.296875 -19.65625 17.957031 -19.140625 17.625 -18.703125 C 17.289062 -18.273438 17.023438 -18.0625 16.828125 -18.0625 C 16.191406 -18.0625 15.875 -18.148438 15.875 -18.328125 C 15.875 -18.367188 15.929688 -18.503906 16.046875 -18.734375 C 16.171875 -18.972656 16.316406 -19.242188 16.484375 -19.546875 C 16.648438 -19.847656 16.789062 -20.097656 16.90625 -20.296875 C 17.03125 -20.597656 17.140625 -20.953125 17.234375 -21.359375 C 17.335938 -21.773438 17.425781 -22.171875 17.5 -22.546875 L 10.875 -22.0625 C 10.96875 -22.03125 11.039062 -21.992188 11.09375 -21.953125 C 11.144531 -21.910156 11.195312 -21.867188 11.25 -21.828125 C 11.445312 -21.671875 11.566406 -21.546875 11.609375 -21.453125 C 11.648438 -21.367188 11.671875 -21.25 11.671875 -21.09375 C 11.671875 -20.914062 11.554688 -20.460938 11.328125 -19.734375 C 11.097656 -19.015625 10.789062 -18.117188 10.40625 -17.046875 C 10.03125 -15.972656 9.597656 -14.804688 9.109375 -13.546875 C 9.710938 -13.566406 10.414062 -13.578125 11.21875 -13.578125 C 12.03125 -13.578125 12.878906 -13.578125 13.765625 -13.578125 L 13.3125 -12.703125 C 13.3125 -12.703125 13.039062 -12.671875 12.5 -12.609375 C 11.96875 -12.546875 11.335938 -12.46875 10.609375 -12.375 C 9.878906 -12.28125 9.210938 -12.203125 8.609375 -12.140625 C 8.054688 -10.679688 7.503906 -9.21875 6.953125 -7.75 C 6.398438 -6.289062 5.882812 -4.953125 5.40625 -3.734375 C 4.925781 -2.523438 4.539062 -1.554688 4.25 -0.828125 C 3.96875 -0.0976562 3.828125 0.265625 3.828125 0.265625 C 3.671875 0.128906 3.539062 0.0351562 3.4375 -0.015625 C 3.34375 -0.0664062 3.222656 -0.144531 3.078125 -0.25 C 2.929688 -0.351562 2.710938 -0.535156 2.421875 -0.796875 C 2.140625 -1.046875 1.882812 -1.300781 1.65625 -1.5625 C 1.4375 -1.832031 1.328125 -1.96875 1.328125 -1.96875 L 7.6875 -21.828125 C 6.800781 -21.753906 6.269531 -21.71875 6.09375 -21.71875 C 6.019531 -21.71875 5.992188 -21.804688 6.015625 -21.984375 C 6.035156 -22.160156 6.0625 -22.335938 6.09375 -22.515625 C 6.132812 -22.691406 6.15625 -22.78125 6.15625 -22.78125 C 6.195312 -22.832031 6.390625 -22.878906 6.734375 -22.921875 C 7.078125 -22.960938 7.523438 -23.019531 8.078125 -23.09375 C 8.972656 -23.175781 10.007812 -23.257812 11.1875 -23.34375 C 12.375 -23.4375 13.550781 -23.515625 14.71875 -23.578125 C 15.882812 -23.648438 16.863281 -23.6875 17.65625 -23.6875 C 17.6875 -23.75 17.703125 -23.796875 17.703125 -23.828125 C 17.703125 -23.867188 17.703125 -23.890625 17.703125 -23.890625 Z M 17.703125 -23.890625 "/></g></g></g><g fill="#ff914d" fill-opacity="1"><g transform="translate(113.622283, 179.901389)"><g><path d="M 11.34375 0.53125 L 11.34375 0.5 C 11.125 0.320312 10.953125 0.191406 10.828125 0.109375 C 10.703125 0.0351562 10.429688 -0.164062 10.015625 -0.5 C 9.722656 -0.738281 9.46875 -0.988281 9.25 -1.25 C 9.03125 -1.519531 8.921875 -1.65625 8.921875 -1.65625 L 10.484375 -6.484375 C 10.015625 -5.835938 9.457031 -5.117188 8.8125 -4.328125 C 8.164062 -3.546875 7.515625 -2.789062 6.859375 -2.0625 C 6.210938 -1.332031 5.632812 -0.734375 5.125 -0.265625 C 4.613281 0.203125 4.257812 0.4375 4.0625 0.4375 C 3.925781 0.4375 3.648438 0.320312 3.234375 0.09375 C 2.828125 -0.125 2.410156 -0.367188 1.984375 -0.640625 C 1.566406 -0.921875 1.238281 -1.160156 1 -1.359375 C 0.925781 -1.429688 0.867188 -1.644531 0.828125 -2 C 0.785156 -2.351562 0.75 -2.769531 0.71875 -3.25 C 0.6875 -3.738281 0.671875 -4.195312 0.671875 -4.625 C 0.671875 -6.082031 0.910156 -7.367188 1.390625 -8.484375 C 1.878906 -9.609375 2.507812 -10.566406 3.28125 -11.359375 C 4.0625 -12.148438 4.882812 -12.789062 5.75 -13.28125 C 6.613281 -13.78125 7.425781 -14.144531 8.1875 -14.375 C 8.957031 -14.613281 9.566406 -14.734375 10.015625 -14.734375 C 10.210938 -14.734375 10.453125 -14.582031 10.734375 -14.28125 C 11.023438 -13.988281 11.316406 -13.644531 11.609375 -13.25 C 11.898438 -12.863281 12.132812 -12.523438 12.3125 -12.234375 L 13.140625 -14.796875 C 13.140625 -14.796875 13.253906 -14.71875 13.484375 -14.5625 C 13.722656 -14.414062 14.007812 -14.234375 14.34375 -14.015625 C 14.675781 -13.804688 14.988281 -13.59375 15.28125 -13.375 C 15.582031 -13.15625 15.8125 -12.976562 15.96875 -12.84375 C 16.144531 -12.664062 16.25 -12.53125 16.28125 -12.4375 C 16.3125 -12.351562 16.328125 -12.222656 16.328125 -12.046875 C 16.328125 -11.847656 16.234375 -11.457031 16.046875 -10.875 C 15.859375 -10.300781 15.609375 -9.613281 15.296875 -8.8125 C 14.992188 -8.019531 14.65625 -7.171875 14.28125 -6.265625 C 13.914062 -5.367188 13.550781 -4.492188 13.1875 -3.640625 C 12.820312 -2.785156 12.492188 -2.035156 12.203125 -1.390625 C 12.316406 -1.441406 12.421875 -1.484375 12.515625 -1.515625 C 12.617188 -1.546875 12.738281 -1.59375 12.875 -1.65625 C 13.070312 -1.769531 13.351562 -1.953125 13.71875 -2.203125 C 14.082031 -2.460938 14.445312 -2.726562 14.8125 -3 C 15.1875 -3.28125 15.503906 -3.523438 15.765625 -3.734375 C 16.035156 -3.953125 16.171875 -4.0625 16.171875 -4.0625 L 16.328125 -3.765625 C 16.328125 -3.765625 16.171875 -3.578125 15.859375 -3.203125 C 15.554688 -2.835938 15.179688 -2.421875 14.734375 -1.953125 C 14.296875 -1.492188 13.882812 -1.117188 13.5 -0.828125 C 13.019531 -0.453125 12.570312 -0.148438 12.15625 0.078125 C 11.75 0.316406 11.488281 0.457031 11.375 0.5 L 11.375 0.53125 Z M 4.15625 -1.234375 C 4.3125 -1.234375 4.59375 -1.414062 5 -1.78125 C 5.414062 -2.144531 5.898438 -2.613281 6.453125 -3.1875 C 7.003906 -3.769531 7.570312 -4.375 8.15625 -5 C 8.75 -5.632812 9.300781 -6.238281 9.8125 -6.8125 C 10.320312 -7.394531 10.722656 -7.851562 11.015625 -8.1875 L 12.203125 -11.9375 C 12.078125 -11.988281 11.898438 -12.035156 11.671875 -12.078125 C 11.453125 -12.117188 11.15625 -12.140625 10.78125 -12.140625 C 10.050781 -12.140625 9.285156 -11.875 8.484375 -11.34375 C 7.679688 -10.8125 6.9375 -10.082031 6.25 -9.15625 C 5.5625 -8.238281 5.003906 -7.191406 4.578125 -6.015625 C 4.160156 -4.847656 3.953125 -3.617188 3.953125 -2.328125 C 3.953125 -1.773438 3.984375 -1.453125 4.046875 -1.359375 C 4.117188 -1.273438 4.15625 -1.234375 4.15625 -1.234375 Z M 4.15625 -1.234375 "/></g></g></g><g fill="#ff914d" fill-opacity="1"><g transform="translate(127.794794, 179.901389)"><g><path d="M 12.703125 -13.46875 C 12.597656 -13.207031 12.410156 -12.707031 12.140625 -11.96875 C 11.878906 -11.238281 11.550781 -10.40625 11.15625 -9.46875 C 10.769531 -8.539062 10.3125 -7.625 9.78125 -6.71875 C 8.445312 -4.5 7.296875 -2.773438 6.328125 -1.546875 C 5.367188 -0.316406 4.800781 0.304688 4.625 0.328125 C 4.332031 0.242188 4.117188 0.175781 3.984375 0.125 C 3.859375 0.0820312 3.539062 -0.046875 3.03125 -0.265625 C 2.675781 -0.421875 2.359375 -0.597656 2.078125 -0.796875 C 1.796875 -0.992188 1.65625 -1.09375 1.65625 -1.09375 L 2.296875 -14.9375 C 2.296875 -14.9375 2.421875 -14.890625 2.671875 -14.796875 C 2.929688 -14.710938 3.25 -14.609375 3.625 -14.484375 C 4 -14.359375 4.359375 -14.226562 4.703125 -14.09375 C 5.046875 -13.96875 5.316406 -13.859375 5.515625 -13.765625 C 5.898438 -13.566406 6.101562 -13.378906 6.125 -13.203125 C 6.164062 -13.003906 6.171875 -12.582031 6.140625 -11.9375 C 6.109375 -11.300781 6.039062 -10.53125 5.9375 -9.625 C 5.832031 -8.726562 5.71875 -7.78125 5.59375 -6.78125 C 5.476562 -5.789062 5.359375 -4.828125 5.234375 -3.890625 C 5.117188 -2.960938 5.003906 -2.15625 4.890625 -1.46875 C 5.398438 -2.15625 6 -2.953125 6.6875 -3.859375 C 7.375 -4.765625 8.117188 -6.03125 8.921875 -7.65625 C 9.492188 -8.800781 9.941406 -9.914062 10.265625 -11 C 10.585938 -12.09375 10.8125 -13 10.9375 -13.71875 C 11.070312 -14.4375 11.140625 -14.796875 11.140625 -14.796875 L 12.609375 -13.90625 C 12.609375 -13.90625 12.632812 -13.859375 12.6875 -13.765625 C 12.75 -13.679688 12.753906 -13.582031 12.703125 -13.46875 Z M 12.703125 -13.46875 "/></g></g></g><g fill="#ff914d" fill-opacity="1"><g transform="translate(137.043417, 179.901389)"><g><path d="M 9.953125 -14.734375 C 10.148438 -14.734375 10.390625 -14.582031 10.671875 -14.28125 C 10.960938 -13.988281 11.25 -13.640625 11.53125 -13.234375 C 11.820312 -12.835938 12.0625 -12.488281 12.25 -12.1875 C 12.445312 -11.894531 12.546875 -11.75 12.546875 -11.75 C 12.546875 -11.75 12.421875 -11.8125 12.171875 -11.9375 C 11.929688 -12.070312 11.445312 -12.140625 10.71875 -12.140625 C 9.976562 -12.140625 9.207031 -11.875 8.40625 -11.34375 C 7.613281 -10.8125 6.875 -10.082031 6.1875 -9.15625 C 5.5 -8.238281 4.9375 -7.191406 4.5 -6.015625 C 4.070312 -4.847656 3.859375 -3.617188 3.859375 -2.328125 C 3.859375 -1.773438 3.898438 -1.453125 3.984375 -1.359375 C 4.078125 -1.273438 4.125 -1.234375 4.125 -1.234375 C 4.125 -1.234375 4.253906 -1.253906 4.515625 -1.296875 C 4.785156 -1.335938 5.097656 -1.492188 5.453125 -1.765625 C 6.722656 -2.515625 7.753906 -3.332031 8.546875 -4.21875 C 9.347656 -5.113281 9.972656 -6 10.421875 -6.875 C 10.878906 -7.75 11.203125 -8.546875 11.390625 -9.265625 C 11.578125 -9.984375 11.691406 -10.5625 11.734375 -11 C 11.785156 -11.445312 11.8125 -11.671875 11.8125 -11.671875 L 12.3125 -11.578125 C 12.3125 -11.578125 12.285156 -11.320312 12.234375 -10.8125 C 12.191406 -10.300781 12.078125 -9.632812 11.890625 -8.8125 C 11.703125 -7.988281 11.390625 -7.09375 10.953125 -6.125 C 10.523438 -5.164062 9.929688 -4.21875 9.171875 -3.28125 C 8.421875 -2.351562 7.457031 -1.535156 6.28125 -0.828125 C 5.625 -0.410156 5.09375 -0.109375 4.6875 0.078125 C 4.289062 0.265625 4.054688 0.382812 3.984375 0.4375 C 3.984375 0.4375 3.972656 0.4375 3.953125 0.4375 C 3.929688 0.4375 3.921875 0.4375 3.921875 0.4375 C 3.785156 0.4375 3.519531 0.320312 3.125 0.09375 C 2.726562 -0.125 2.316406 -0.367188 1.890625 -0.640625 C 1.472656 -0.921875 1.15625 -1.160156 0.9375 -1.359375 C 0.882812 -1.429688 0.835938 -1.644531 0.796875 -2 C 0.753906 -2.351562 0.722656 -2.769531 0.703125 -3.25 C 0.679688 -3.738281 0.671875 -4.195312 0.671875 -4.625 C 0.671875 -6.082031 0.910156 -7.367188 1.390625 -8.484375 C 1.878906 -9.609375 2.503906 -10.566406 3.265625 -11.359375 C 4.035156 -12.148438 4.851562 -12.789062 5.71875 -13.28125 C 6.582031 -13.78125 7.390625 -14.144531 8.140625 -14.375 C 8.898438 -14.613281 9.503906 -14.734375 9.953125 -14.734375 Z M 9.953125 -14.734375 "/></g></g></g><g fill="#ff914d" fill-opacity="1"><g transform="translate(147.090505, 179.901389)"><g><path d="M 8.28125 -1.703125 L 10.453125 -8.546875 C 10.066406 -8.078125 9.609375 -7.523438 9.078125 -6.890625 C 8.546875 -6.265625 7.984375 -5.609375 7.390625 -4.921875 C 6.804688 -4.234375 6.238281 -3.570312 5.6875 -2.9375 C 5.132812 -2.3125 4.640625 -1.78125 4.203125 -1.34375 C 3.773438 -0.914062 3.460938 -0.632812 3.265625 -0.5 C 3.109375 -0.1875 2.988281 0.0625 2.90625 0.25 C 2.832031 0.4375 2.796875 0.53125 2.796875 0.53125 C 2.640625 0.375 2.515625 0.257812 2.421875 0.1875 C 2.335938 0.125 2.226562 0.046875 2.09375 -0.046875 C 1.957031 -0.148438 1.738281 -0.320312 1.4375 -0.5625 C 1.144531 -0.78125 0.882812 -1.023438 0.65625 -1.296875 C 0.4375 -1.566406 0.328125 -1.703125 0.328125 -1.703125 L 4.59375 -14.796875 C 4.59375 -14.796875 4.703125 -14.722656 4.921875 -14.578125 C 5.140625 -14.441406 5.414062 -14.257812 5.75 -14.03125 C 6.082031 -13.8125 6.40625 -13.597656 6.71875 -13.390625 C 7.03125 -13.179688 7.265625 -13.007812 7.421875 -12.875 C 7.597656 -12.675781 7.710938 -12.535156 7.765625 -12.453125 C 7.816406 -12.378906 7.84375 -12.273438 7.84375 -12.140625 C 7.84375 -11.921875 7.742188 -11.507812 7.546875 -10.90625 C 7.347656 -10.3125 7.082031 -9.597656 6.75 -8.765625 C 6.414062 -7.929688 6.0625 -7.050781 5.6875 -6.125 C 5.3125 -5.207031 4.9375 -4.332031 4.5625 -3.5 C 5.269531 -4.226562 6.03125 -5.035156 6.84375 -5.921875 C 7.664062 -6.804688 8.445312 -7.65625 9.1875 -8.46875 C 9.9375 -9.28125 10.546875 -9.925781 11.015625 -10.40625 L 12.40625 -14.796875 C 12.40625 -14.796875 12.519531 -14.722656 12.75 -14.578125 C 12.988281 -14.441406 13.273438 -14.257812 13.609375 -14.03125 C 13.941406 -13.8125 14.265625 -13.597656 14.578125 -13.390625 C 14.898438 -13.179688 15.148438 -13.007812 15.328125 -12.875 C 15.484375 -12.675781 15.578125 -12.535156 15.609375 -12.453125 C 15.648438 -12.378906 15.671875 -12.273438 15.671875 -12.140625 C 15.671875 -11.941406 15.578125 -11.546875 15.390625 -10.953125 C 15.203125 -10.367188 14.953125 -9.675781 14.640625 -8.875 C 14.328125 -8.082031 13.988281 -7.234375 13.625 -6.328125 C 13.257812 -5.429688 12.898438 -4.5625 12.546875 -3.71875 C 12.191406 -2.882812 11.867188 -2.132812 11.578125 -1.46875 C 11.710938 -1.488281 11.921875 -1.550781 12.203125 -1.65625 C 12.410156 -1.769531 12.695312 -1.953125 13.0625 -2.203125 C 13.425781 -2.460938 13.789062 -2.726562 14.15625 -3 C 14.519531 -3.28125 14.828125 -3.523438 15.078125 -3.734375 C 15.335938 -3.953125 15.46875 -4.0625 15.46875 -4.0625 L 15.671875 -3.796875 C 15.671875 -3.796875 15.515625 -3.609375 15.203125 -3.234375 C 14.890625 -2.867188 14.507812 -2.453125 14.0625 -1.984375 C 13.625 -1.523438 13.207031 -1.140625 12.8125 -0.828125 C 12.320312 -0.453125 11.875 -0.148438 11.46875 0.078125 C 11.070312 0.316406 10.820312 0.457031 10.71875 0.5 L 10.71875 0.53125 L 10.671875 0.53125 L 10.671875 0.5 C 10.429688 0.300781 10.25 0.160156 10.125 0.078125 C 10.007812 0.00390625 9.738281 -0.207031 9.3125 -0.5625 C 9.070312 -0.78125 8.835938 -1.023438 8.609375 -1.296875 C 8.390625 -1.566406 8.28125 -1.703125 8.28125 -1.703125 Z M 8.28125 -1.703125 "/></g></g></g><g fill="#ff914d" fill-opacity="1"><g transform="translate(160.597633, 179.901389)"><g><path d="M 10.28125 -9.640625 L 11.015625 -11.8125 C 10.503906 -11.257812 9.929688 -10.601562 9.296875 -9.84375 C 8.660156 -9.09375 8.019531 -8.316406 7.375 -7.515625 C 6.738281 -6.722656 6.148438 -5.96875 5.609375 -5.25 C 5.066406 -4.539062 4.601562 -3.957031 4.21875 -3.5 C 3.738281 -2.382812 3.328125 -1.429688 2.984375 -0.640625 C 2.640625 0.140625 2.46875 0.53125 2.46875 0.53125 C 2.238281 0.3125 2.050781 0.160156 1.90625 0.078125 C 1.769531 0.00390625 1.5 -0.207031 1.09375 -0.5625 C 0.8125 -0.78125 0.554688 -1.023438 0.328125 -1.296875 C 0.109375 -1.566406 0 -1.703125 0 -1.703125 L 4.21875 -14.796875 C 4.21875 -14.796875 4.328125 -14.722656 4.546875 -14.578125 C 4.773438 -14.441406 5.050781 -14.257812 5.375 -14.03125 C 5.695312 -13.8125 6.007812 -13.597656 6.3125 -13.390625 C 6.625 -13.179688 6.859375 -13.007812 7.015625 -12.875 C 7.242188 -12.675781 7.378906 -12.535156 7.421875 -12.453125 C 7.460938 -12.378906 7.484375 -12.273438 7.484375 -12.140625 C 7.484375 -11.921875 7.378906 -11.492188 7.171875 -10.859375 C 6.960938 -10.222656 6.691406 -9.476562 6.359375 -8.625 C 6.023438 -7.78125 5.65625 -6.890625 5.25 -5.953125 C 5.757812 -6.640625 6.335938 -7.414062 6.984375 -8.28125 C 7.628906 -9.144531 8.269531 -10 8.90625 -10.84375 C 9.550781 -11.6875 10.132812 -12.414062 10.65625 -13.03125 C 11.175781 -13.65625 11.570312 -14.066406 11.84375 -14.265625 L 12.015625 -14.796875 C 12.015625 -14.796875 12.191406 -14.6875 12.546875 -14.46875 C 12.898438 -14.25 13.28125 -13.992188 13.6875 -13.703125 C 14.09375 -13.410156 14.398438 -13.175781 14.609375 -13 C 14.785156 -12.851562 14.898438 -12.742188 14.953125 -12.671875 C 15.003906 -12.609375 15.03125 -12.507812 15.03125 -12.375 C 15.03125 -12.039062 14.898438 -11.613281 14.640625 -11.09375 C 14.390625 -10.570312 14.097656 -10.039062 13.765625 -9.5 C 13.429688 -8.957031 13.140625 -8.5 12.890625 -8.125 C 12.640625 -7.757812 12.515625 -7.578125 12.515625 -7.578125 C 12.359375 -7.710938 12.234375 -7.800781 12.140625 -7.84375 C 12.054688 -7.894531 11.953125 -7.960938 11.828125 -8.046875 C 11.703125 -8.140625 11.507812 -8.304688 11.25 -8.546875 C 11.019531 -8.765625 10.800781 -9 10.59375 -9.25 C 10.382812 -9.507812 10.28125 -9.640625 10.28125 -9.640625 Z M 10.28125 -9.640625 "/></g></g></g><g fill="#ff914d" fill-opacity="1"><g transform="translate(171.476466, 179.901389)"><g/></g></g><g fill="#ff914d" fill-opacity="1"><g transform="translate(175.634837, 179.901389)"><g><path d="M 24.1875 -1.96875 L 29.4375 -18.421875 C 28.90625 -17.535156 28.132812 -16.363281 27.125 -14.90625 C 26.113281 -13.457031 24.734375 -11.679688 22.984375 -9.578125 C 21.429688 -7.691406 20.132812 -6.003906 19.09375 -4.515625 C 18.050781 -3.035156 17.242188 -1.867188 16.671875 -1.015625 C 16.109375 -0.160156 15.785156 0.265625 15.703125 0.265625 C 15.546875 0.128906 15.414062 0.0351562 15.3125 -0.015625 C 15.21875 -0.0664062 15.101562 -0.144531 14.96875 -0.25 C 14.832031 -0.351562 14.625 -0.535156 14.34375 -0.796875 C 14.050781 -1.046875 13.785156 -1.300781 13.546875 -1.5625 C 13.316406 -1.832031 13.203125 -1.96875 13.203125 -1.96875 L 18.6875 -19.125 C 18.226562 -18.300781 17.460938 -17.101562 16.390625 -15.53125 C 15.328125 -13.957031 13.8125 -11.972656 11.84375 -9.578125 C 10.6875 -8.160156 9.519531 -6.851562 8.34375 -5.65625 C 7.175781 -4.457031 6.101562 -3.414062 5.125 -2.53125 C 4.144531 -1.644531 3.34375 -0.957031 2.71875 -0.46875 C 2.101562 0.0195312 1.765625 0.265625 1.703125 0.265625 C 1.628906 0.265625 1.46875 0.171875 1.21875 -0.015625 C 0.976562 -0.203125 0.707031 -0.414062 0.40625 -0.65625 C 0.113281 -0.90625 -0.132812 -1.132812 -0.34375 -1.34375 C -0.5625 -1.550781 -0.671875 -1.691406 -0.671875 -1.765625 C -0.671875 -1.828125 -0.640625 -2.101562 -0.578125 -2.59375 C -0.523438 -3.082031 -0.453125 -3.640625 -0.359375 -4.265625 C -0.273438 -4.898438 -0.179688 -5.492188 -0.078125 -6.046875 C 0.015625 -6.609375 0.0976562 -6.988281 0.171875 -7.1875 C 0.210938 -7.269531 0.269531 -7.34375 0.34375 -7.40625 C 0.425781 -7.476562 0.46875 -7.515625 0.46875 -7.515625 C 0.550781 -7.515625 0.753906 -7.40625 1.078125 -7.1875 C 1.398438 -6.96875 1.742188 -6.703125 2.109375 -6.390625 C 2.472656 -6.078125 2.785156 -5.796875 3.046875 -5.546875 C 3.316406 -5.304688 3.453125 -5.164062 3.453125 -5.125 C 3.453125 -5.082031 3.394531 -4.90625 3.28125 -4.59375 C 3.175781 -4.28125 3.054688 -3.9375 2.921875 -3.5625 C 2.796875 -3.1875 2.675781 -2.851562 2.5625 -2.5625 C 2.445312 -2.269531 2.390625 -2.125 2.390625 -2.125 C 2.390625 -2.125 2.628906 -2.3125 3.109375 -2.6875 C 3.585938 -3.070312 4.234375 -3.628906 5.046875 -4.359375 C 5.867188 -5.085938 6.789062 -5.96875 7.8125 -7 C 8.832031 -8.03125 9.890625 -9.210938 10.984375 -10.546875 C 12.285156 -12.140625 13.484375 -13.703125 14.578125 -15.234375 C 15.679688 -16.765625 16.640625 -18.160156 17.453125 -19.421875 C 18.273438 -20.691406 18.921875 -21.71875 19.390625 -22.5 C 19.859375 -23.289062 20.125 -23.738281 20.1875 -23.84375 L 20.21875 -23.890625 L 20.21875 -23.84375 L 20.21875 -23.890625 C 20.21875 -23.890625 20.332031 -23.8125 20.5625 -23.65625 C 20.800781 -23.5 21.09375 -23.300781 21.4375 -23.0625 C 21.78125 -22.832031 22.113281 -22.609375 22.4375 -22.390625 C 22.757812 -22.171875 23 -21.984375 23.15625 -21.828125 C 23.332031 -21.671875 23.441406 -21.546875 23.484375 -21.453125 C 23.523438 -21.367188 23.546875 -21.25 23.546875 -21.09375 C 23.546875 -20.914062 23.4375 -20.476562 23.21875 -19.78125 C 23 -19.082031 22.695312 -18.203125 22.3125 -17.140625 C 21.9375 -16.085938 21.515625 -14.9375 21.046875 -13.6875 C 20.585938 -12.4375 20.109375 -11.15625 19.609375 -9.84375 C 19.109375 -8.539062 18.625 -7.289062 18.15625 -6.09375 C 18.488281 -6.394531 18.96875 -6.875 19.59375 -7.53125 C 20.21875 -8.1875 21.070312 -9.191406 22.15625 -10.546875 C 23.46875 -12.140625 24.660156 -13.703125 25.734375 -15.234375 C 26.804688 -16.765625 27.734375 -18.160156 28.515625 -19.421875 C 29.304688 -20.691406 29.925781 -21.71875 30.375 -22.5 C 30.832031 -23.289062 31.097656 -23.738281 31.171875 -23.84375 L 31.203125 -23.890625 C 31.203125 -23.890625 31.316406 -23.8125 31.546875 -23.65625 C 31.785156 -23.5 32.078125 -23.300781 32.421875 -23.0625 C 32.765625 -22.832031 33.09375 -22.609375 33.40625 -22.390625 C 33.726562 -22.171875 33.96875 -21.984375 34.125 -21.828125 C 34.300781 -21.671875 34.410156 -21.546875 34.453125 -21.453125 C 34.503906 -21.367188 34.53125 -21.25 34.53125 -21.09375 C 34.53125 -20.894531 34.382812 -20.363281 34.09375 -19.5 C 33.8125 -18.632812 33.4375 -17.554688 32.96875 -16.265625 C 32.5 -14.984375 31.988281 -13.597656 31.4375 -12.109375 C 30.882812 -10.617188 30.328125 -9.144531 29.765625 -7.6875 C 29.210938 -6.238281 28.703125 -4.910156 28.234375 -3.703125 C 27.773438 -2.492188 27.398438 -1.53125 27.109375 -0.8125 C 26.816406 -0.09375 26.671875 0.265625 26.671875 0.265625 C 26.523438 0.128906 26.398438 0.0351562 26.296875 -0.015625 C 26.191406 -0.0664062 26.070312 -0.144531 25.9375 -0.25 C 25.8125 -0.351562 25.601562 -0.535156 25.3125 -0.796875 C 25.019531 -1.046875 24.757812 -1.300781 24.53125 -1.5625 C 24.300781 -1.832031 24.1875 -1.96875 24.1875 -1.96875 Z M 24.1875 -1.96875 "/></g></g></g><g fill="#ff914d" fill-opacity="1"><g transform="translate(206.342332, 179.901389)"><g><path d="M 11.34375 0.53125 L 11.34375 0.5 C 11.125 0.320312 10.953125 0.191406 10.828125 0.109375 C 10.703125 0.0351562 10.429688 -0.164062 10.015625 -0.5 C 9.722656 -0.738281 9.46875 -0.988281 9.25 -1.25 C 9.03125 -1.519531 8.921875 -1.65625 8.921875 -1.65625 L 10.484375 -6.484375 C 10.015625 -5.835938 9.457031 -5.117188 8.8125 -4.328125 C 8.164062 -3.546875 7.515625 -2.789062 6.859375 -2.0625 C 6.210938 -1.332031 5.632812 -0.734375 5.125 -0.265625 C 4.613281 0.203125 4.257812 0.4375 4.0625 0.4375 C 3.925781 0.4375 3.648438 0.320312 3.234375 0.09375 C 2.828125 -0.125 2.410156 -0.367188 1.984375 -0.640625 C 1.566406 -0.921875 1.238281 -1.160156 1 -1.359375 C 0.925781 -1.429688 0.867188 -1.644531 0.828125 -2 C 0.785156 -2.351562 0.75 -2.769531 0.71875 -3.25 C 0.6875 -3.738281 0.671875 -4.195312 0.671875 -4.625 C 0.671875 -6.082031 0.910156 -7.367188 1.390625 -8.484375 C 1.878906 -9.609375 2.507812 -10.566406 3.28125 -11.359375 C 4.0625 -12.148438 4.882812 -12.789062 5.75 -13.28125 C 6.613281 -13.78125 7.425781 -14.144531 8.1875 -14.375 C 8.957031 -14.613281 9.566406 -14.734375 10.015625 -14.734375 C 10.210938 -14.734375 10.453125 -14.582031 10.734375 -14.28125 C 11.023438 -13.988281 11.316406 -13.644531 11.609375 -13.25 C 11.898438 -12.863281 12.132812 -12.523438 12.3125 -12.234375 L 13.140625 -14.796875 C 13.140625 -14.796875 13.253906 -14.71875 13.484375 -14.5625 C 13.722656 -14.414062 14.007812 -14.234375 14.34375 -14.015625 C 14.675781 -13.804688 14.988281 -13.59375 15.28125 -13.375 C 15.582031 -13.15625 15.8125 -12.976562 15.96875 -12.84375 C 16.144531 -12.664062 16.25 -12.53125 16.28125 -12.4375 C 16.3125 -12.351562 16.328125 -12.222656 16.328125 -12.046875 C 16.328125 -11.847656 16.234375 -11.457031 16.046875 -10.875 C 15.859375 -10.300781 15.609375 -9.613281 15.296875 -8.8125 C 14.992188 -8.019531 14.65625 -7.171875 14.28125 -6.265625 C 13.914062 -5.367188 13.550781 -4.492188 13.1875 -3.640625 C 12.820312 -2.785156 12.492188 -2.035156 12.203125 -1.390625 C 12.316406 -1.441406 12.421875 -1.484375 12.515625 -1.515625 C 12.617188 -1.546875 12.738281 -1.59375 12.875 -1.65625 C 13.070312 -1.769531 13.351562 -1.953125 13.71875 -2.203125 C 14.082031 -2.460938 14.445312 -2.726562 14.8125 -3 C 15.1875 -3.28125 15.503906 -3.523438 15.765625 -3.734375 C 16.035156 -3.953125 16.171875 -4.0625 16.171875 -4.0625 L 16.328125 -3.765625 C 16.328125 -3.765625 16.171875 -3.578125 15.859375 -3.203125 C 15.554688 -2.835938 15.179688 -2.421875 14.734375 -1.953125 C 14.296875 -1.492188 13.882812 -1.117188 13.5 -0.828125 C 13.019531 -0.453125 12.570312 -0.148438 12.15625 0.078125 C 11.75 0.316406 11.488281 0.457031 11.375 0.5 L 11.375 0.53125 Z M 4.15625 -1.234375 C 4.3125 -1.234375 4.59375 -1.414062 5 -1.78125 C 5.414062 -2.144531 5.898438 -2.613281 6.453125 -3.1875 C 7.003906 -3.769531 7.570312 -4.375 8.15625 -5 C 8.75 -5.632812 9.300781 -6.238281 9.8125 -6.8125 C 10.320312 -7.394531 10.722656 -7.851562 11.015625 -8.1875 L 12.203125 -11.9375 C 12.078125 -11.988281 11.898438 -12.035156 11.671875 -12.078125 C 11.453125 -12.117188 11.15625 -12.140625 10.78125 -12.140625 C 10.050781 -12.140625 9.285156 -11.875 8.484375 -11.34375 C 7.679688 -10.8125 6.9375 -10.082031 6.25 -9.15625 C 5.5625 -8.238281 5.003906 -7.191406 4.578125 -6.015625 C 4.160156 -4.847656 3.953125 -3.617188 3.953125 -2.328125 C 3.953125 -1.773438 3.984375 -1.453125 4.046875 -1.359375 C 4.117188 -1.273438 4.15625 -1.234375 4.15625 -1.234375 Z M 4.15625 -1.234375 "/></g></g></g><g fill="#ff914d" fill-opacity="1"><g transform="translate(220.514843, 179.901389)"><g><path d="M 11.96875 -14.578125 C 12.144531 -14.578125 12.390625 -14.53125 12.703125 -14.4375 C 13.015625 -14.34375 13.296875 -14.222656 13.546875 -14.078125 C 13.804688 -13.941406 13.9375 -13.804688 13.9375 -13.671875 C 13.9375 -13.554688 13.832031 -13.28125 13.625 -12.84375 C 13.414062 -12.414062 13.15625 -11.945312 12.84375 -11.4375 C 12.53125 -10.925781 12.226562 -10.484375 11.9375 -10.109375 C 11.65625 -9.734375 11.4375 -9.546875 11.28125 -9.546875 C 10.675781 -9.546875 10.375 -9.601562 10.375 -9.71875 C 10.375 -9.78125 10.492188 -10.015625 10.734375 -10.421875 C 10.984375 -10.835938 11.164062 -11.191406 11.28125 -11.484375 C 11.34375 -11.609375 11.398438 -11.757812 11.453125 -11.9375 C 11.515625 -12.113281 11.566406 -12.289062 11.609375 -12.46875 C 11.234375 -12.09375 10.78125 -11.625 10.25 -11.0625 C 9.71875 -10.5 9.160156 -9.90625 8.578125 -9.28125 C 8.648438 -8.375 8.710938 -7.429688 8.765625 -6.453125 C 8.816406 -5.472656 8.867188 -4.539062 8.921875 -3.65625 C 8.984375 -2.769531 9.023438 -1.992188 9.046875 -1.328125 C 9.160156 -1.328125 9.363281 -1.359375 9.65625 -1.421875 C 9.957031 -1.492188 10.285156 -1.609375 10.640625 -1.765625 C 10.867188 -1.847656 11.164062 -2.007812 11.53125 -2.25 C 11.894531 -2.5 12.257812 -2.769531 12.625 -3.0625 C 12.988281 -3.351562 13.296875 -3.601562 13.546875 -3.8125 C 13.804688 -4.019531 13.9375 -4.125 13.9375 -4.125 L 14.265625 -3.828125 C 14.265625 -3.828125 14.097656 -3.648438 13.765625 -3.296875 C 13.429688 -2.941406 13.03125 -2.535156 12.5625 -2.078125 C 12.101562 -1.617188 11.6875 -1.238281 11.3125 -0.9375 C 10.707031 -0.46875 10.1875 -0.125 9.75 0.09375 C 9.320312 0.320312 9.109375 0.4375 9.109375 0.4375 C 8.828125 0.363281 8.613281 0.3125 8.46875 0.28125 C 8.320312 0.25 7.992188 0.15625 7.484375 0 C 7.128906 -0.113281 6.796875 -0.253906 6.484375 -0.421875 C 6.171875 -0.585938 6.015625 -0.671875 6.015625 -0.671875 L 5.328125 -5.59375 L 5.0625 -5.25 C 4.65625 -4.71875 4.195312 -4.125 3.6875 -3.46875 C 3.175781 -2.820312 2.679688 -2.203125 2.203125 -1.609375 C 1.734375 -1.023438 1.347656 -0.535156 1.046875 -0.140625 C 0.742188 0.242188 0.59375 0.4375 0.59375 0.4375 L -0.328125 -0.671875 C -0.328125 -0.753906 -0.0664062 -1.078125 0.453125 -1.640625 C 0.972656 -2.210938 1.65625 -2.9375 2.5 -3.8125 C 3.34375 -4.6875 4.226562 -5.613281 5.15625 -6.59375 L 4.125 -13.734375 C 3.851562 -13.578125 3.519531 -13.347656 3.125 -13.046875 C 2.726562 -12.753906 2.320312 -12.445312 1.90625 -12.125 C 1.5 -11.800781 1.160156 -11.519531 0.890625 -11.28125 C 0.628906 -11.050781 0.5 -10.9375 0.5 -10.9375 C 0.5 -10.9375 0.441406 -11 0.328125 -11.125 C 0.222656 -11.25 0.191406 -11.320312 0.234375 -11.34375 C 0.347656 -11.457031 0.597656 -11.691406 0.984375 -12.046875 C 1.367188 -12.398438 1.789062 -12.789062 2.25 -13.21875 C 2.71875 -13.65625 3.125 -14.023438 3.46875 -14.328125 C 3.8125 -14.640625 3.984375 -14.796875 3.984375 -14.796875 C 3.984375 -14.796875 4.125 -14.773438 4.40625 -14.734375 C 4.6875 -14.691406 5.019531 -14.632812 5.40625 -14.5625 C 5.789062 -14.5 6.171875 -14.425781 6.546875 -14.34375 C 6.929688 -14.269531 7.234375 -14.203125 7.453125 -14.140625 C 7.691406 -14.046875 7.84375 -13.972656 7.90625 -13.921875 C 7.976562 -13.867188 8.023438 -13.785156 8.046875 -13.671875 C 8.140625 -13.472656 8.222656 -13.054688 8.296875 -12.421875 C 8.378906 -11.796875 8.453125 -11.023438 8.515625 -10.109375 C 9.296875 -10.953125 9.988281 -11.71875 10.59375 -12.40625 C 11.207031 -13.09375 11.644531 -13.625 11.90625 -14 C 11.925781 -14.175781 11.941406 -14.316406 11.953125 -14.421875 C 11.960938 -14.523438 11.96875 -14.578125 11.96875 -14.578125 Z M 11.96875 -14.578125 "/></g></g></g><g fill="#ff914d" fill-opacity="1"><g transform="translate(231.293861, 179.901389)"><g><path d="M 3.03125 -12.34375 C 3.03125 -12.34375 3.269531 -12.363281 3.75 -12.40625 C 4.238281 -12.445312 4.890625 -12.492188 5.703125 -12.546875 C 6.515625 -12.609375 7.410156 -12.644531 8.390625 -12.65625 C 9.378906 -12.664062 10.378906 -12.632812 11.390625 -12.5625 C 12.398438 -12.5 13.347656 -12.367188 14.234375 -12.171875 L 14.234375 -10.875 C 14.234375 -10.875 14.207031 -10.878906 14.15625 -10.890625 C 14.101562 -10.898438 13.921875 -10.910156 13.609375 -10.921875 C 13.296875 -10.929688 12.757812 -10.941406 12 -10.953125 C 11.25 -10.972656 10.175781 -10.984375 8.78125 -10.984375 C 8.382812 -10.984375 7.828125 -10.957031 7.109375 -10.90625 C 6.398438 -10.863281 5.679688 -10.804688 4.953125 -10.734375 C 4.222656 -10.671875 3.601562 -10.617188 3.09375 -10.578125 C 2.582031 -10.535156 2.328125 -10.515625 2.328125 -10.515625 Z M 3.03125 -12.34375 "/></g></g></g><g fill="#ff914d" fill-opacity="1"><g transform="translate(242.072878, 179.901389)"><g><path d="M 8.421875 0.265625 C 8.265625 0.242188 7.953125 0.148438 7.484375 -0.015625 C 7.015625 -0.179688 6.535156 -0.378906 6.046875 -0.609375 C 5.566406 -0.847656 5.210938 -1.078125 4.984375 -1.296875 C 4.941406 -1.335938 4.796875 -1.554688 4.546875 -1.953125 C 4.304688 -2.359375 4.039062 -2.863281 3.75 -3.46875 C 3.46875 -4.082031 3.210938 -4.742188 2.984375 -5.453125 C 2.765625 -6.160156 2.65625 -6.835938 2.65625 -7.484375 C 2.65625 -9.640625 2.929688 -11.539062 3.484375 -13.1875 C 4.046875 -14.84375 4.773438 -16.273438 5.671875 -17.484375 C 6.566406 -18.691406 7.539062 -19.703125 8.59375 -20.515625 C 9.644531 -21.335938 10.679688 -22 11.703125 -22.5 C 12.722656 -23 13.632812 -23.351562 14.4375 -23.5625 C 15.238281 -23.78125 15.816406 -23.890625 16.171875 -23.890625 C 16.347656 -23.890625 16.570312 -23.742188 16.84375 -23.453125 C 17.125 -23.160156 17.398438 -22.828125 17.671875 -22.453125 C 17.953125 -22.078125 18.1875 -21.742188 18.375 -21.453125 C 18.5625 -21.171875 18.65625 -21.03125 18.65625 -21.03125 C 17.769531 -21.289062 16.789062 -21.21875 15.71875 -20.8125 C 14.644531 -20.414062 13.570312 -19.765625 12.5 -18.859375 C 11.4375 -17.953125 10.472656 -16.847656 9.609375 -15.546875 C 8.742188 -14.253906 8.066406 -12.816406 7.578125 -11.234375 C 7.097656 -9.660156 6.882812 -8.007812 6.9375 -6.28125 C 6.988281 -4.550781 7.414062 -2.8125 8.21875 -1.0625 C 8.21875 -1.0625 8.234375 -1.066406 8.265625 -1.078125 C 8.296875 -1.085938 8.320312 -1.101562 8.34375 -1.125 C 8.550781 -1.21875 8.945312 -1.445312 9.53125 -1.8125 C 10.113281 -2.175781 10.816406 -2.738281 11.640625 -3.5 C 12.460938 -4.269531 13.34375 -5.285156 14.28125 -6.546875 C 15.226562 -7.816406 16.164062 -9.382812 17.09375 -11.25 C 17.65625 -12.375 18.003906 -13.441406 18.140625 -14.453125 C 18.285156 -15.460938 18.316406 -16.351562 18.234375 -17.125 C 18.160156 -17.90625 18.054688 -18.519531 17.921875 -18.96875 C 17.796875 -19.425781 17.734375 -19.65625 17.734375 -19.65625 L 18.65625 -19.953125 C 18.65625 -19.953125 18.722656 -19.703125 18.859375 -19.203125 C 18.992188 -18.710938 19.097656 -18.039062 19.171875 -17.1875 C 19.253906 -16.332031 19.238281 -15.367188 19.125 -14.296875 C 19.019531 -13.234375 18.710938 -12.128906 18.203125 -10.984375 C 17.203125 -8.648438 16.050781 -6.71875 14.75 -5.1875 C 13.457031 -3.65625 12.273438 -2.46875 11.203125 -1.625 C 10.984375 -1.40625 10.753906 -1.207031 10.515625 -1.03125 C 10.003906 -0.632812 9.539062 -0.328125 9.125 -0.109375 C 8.71875 0.0976562 8.484375 0.222656 8.421875 0.265625 Z M 8.421875 0.265625 "/></g></g></g><g fill="#ff914d" fill-opacity="1"><g transform="translate(258.80715, 179.901389)"><g><path d="M 3.125 0.53125 C 2.945312 0.375 2.804688 0.257812 2.703125 0.1875 C 2.609375 0.125 2.5 0.046875 2.375 -0.046875 C 2.257812 -0.148438 2.066406 -0.320312 1.796875 -0.5625 C 1.503906 -0.78125 1.242188 -1.023438 1.015625 -1.296875 C 0.785156 -1.566406 0.671875 -1.703125 0.671875 -1.703125 L 4.59375 -13 C 4.0625 -12.875 3.566406 -12.710938 3.109375 -12.515625 C 2.648438 -12.328125 2.300781 -12.113281 2.0625 -11.875 L 1.890625 -13.765625 C 1.890625 -13.765625 2.203125 -13.882812 2.828125 -14.125 C 3.453125 -14.375 4.238281 -14.566406 5.1875 -14.703125 L 6.359375 -18.03125 C 6.359375 -18.03125 6.546875 -17.90625 6.921875 -17.65625 C 7.296875 -17.414062 7.710938 -17.140625 8.171875 -16.828125 C 8.640625 -16.515625 8.988281 -16.257812 9.21875 -16.0625 C 9.394531 -15.882812 9.503906 -15.742188 9.546875 -15.640625 C 9.585938 -15.546875 9.609375 -15.441406 9.609375 -15.328125 C 9.609375 -15.242188 9.554688 -15.015625 9.453125 -14.640625 C 10.160156 -14.546875 10.785156 -14.460938 11.328125 -14.390625 C 11.867188 -14.328125 12.140625 -14.296875 12.140625 -14.296875 L 11.84375 -13.765625 C 11.84375 -13.765625 11.582031 -13.757812 11.0625 -13.75 C 10.539062 -13.738281 9.890625 -13.710938 9.109375 -13.671875 C 8.847656 -12.921875 8.5 -12.007812 8.0625 -10.9375 C 7.632812 -9.875 7.171875 -8.757812 6.671875 -7.59375 C 6.171875 -6.4375 5.6875 -5.316406 5.21875 -4.234375 C 4.757812 -3.160156 4.347656 -2.226562 3.984375 -1.4375 L 4.65625 -1.65625 C 4.851562 -1.769531 5.132812 -1.953125 5.5 -2.203125 C 5.863281 -2.460938 6.234375 -2.726562 6.609375 -3 C 6.992188 -3.28125 7.3125 -3.523438 7.5625 -3.734375 C 7.820312 -3.953125 7.953125 -4.0625 7.953125 -4.0625 L 8.1875 -3.796875 C 8.1875 -3.796875 8.023438 -3.609375 7.703125 -3.234375 C 7.378906 -2.867188 6.992188 -2.453125 6.546875 -1.984375 C 6.109375 -1.523438 5.691406 -1.140625 5.296875 -0.828125 C 4.734375 -0.410156 4.226562 -0.0820312 3.78125 0.15625 C 3.34375 0.40625 3.125 0.53125 3.125 0.53125 Z M 3.125 0.53125 "/></g></g></g><g fill="#ff914d" fill-opacity="1"><g transform="translate(266.126126, 179.901389)"><g><path d="M 2.734375 0.53125 L 2.734375 0.46875 C 2.503906 0.289062 2.328125 0.160156 2.203125 0.078125 C 2.085938 0.00390625 1.804688 -0.207031 1.359375 -0.5625 C 1.097656 -0.78125 0.859375 -1.023438 0.640625 -1.296875 C 0.429688 -1.566406 0.328125 -1.703125 0.328125 -1.703125 L 4.53125 -14.796875 C 4.53125 -14.796875 4.640625 -14.722656 4.859375 -14.578125 C 5.078125 -14.441406 5.351562 -14.257812 5.6875 -14.03125 C 6.019531 -13.8125 6.34375 -13.597656 6.65625 -13.390625 C 6.96875 -13.179688 7.203125 -13.007812 7.359375 -12.875 C 7.535156 -12.675781 7.65625 -12.535156 7.71875 -12.453125 C 7.78125 -12.378906 7.8125 -12.273438 7.8125 -12.140625 C 7.8125 -11.941406 7.71875 -11.546875 7.53125 -10.953125 C 7.34375 -10.367188 7.09375 -9.675781 6.78125 -8.875 C 6.476562 -8.082031 6.132812 -7.234375 5.75 -6.328125 C 5.375 -5.429688 5.003906 -4.5625 4.640625 -3.71875 C 4.273438 -2.882812 3.945312 -2.132812 3.65625 -1.46875 C 3.832031 -1.488281 4.046875 -1.550781 4.296875 -1.65625 C 4.492188 -1.769531 4.769531 -1.953125 5.125 -2.203125 C 5.476562 -2.460938 5.84375 -2.726562 6.21875 -3 C 6.59375 -3.28125 6.90625 -3.523438 7.15625 -3.734375 C 7.414062 -3.953125 7.546875 -4.0625 7.546875 -4.0625 L 7.8125 -3.796875 C 7.8125 -3.796875 7.644531 -3.609375 7.3125 -3.234375 C 6.976562 -2.867188 6.585938 -2.453125 6.140625 -1.984375 C 5.703125 -1.523438 5.296875 -1.140625 4.921875 -0.828125 C 4.429688 -0.472656 3.988281 -0.179688 3.59375 0.046875 C 3.195312 0.285156 2.929688 0.4375 2.796875 0.5 L 2.796875 0.53125 L 2.765625 0.5 Z M 6.21875 -20.828125 C 6.488281 -20.828125 6.8125 -20.671875 7.1875 -20.359375 C 7.5625 -20.046875 7.945312 -19.742188 8.34375 -19.453125 C 8.726562 -19.210938 9.050781 -18.953125 9.3125 -18.671875 C 9.582031 -18.398438 9.769531 -18.15625 9.875 -17.9375 C 9.925781 -17.84375 9.890625 -17.625 9.765625 -17.28125 C 9.640625 -16.9375 9.484375 -16.554688 9.296875 -16.140625 C 9.109375 -15.734375 8.929688 -15.375 8.765625 -15.0625 C 8.597656 -14.757812 8.484375 -14.609375 8.421875 -14.609375 C 8.328125 -14.609375 8.113281 -14.71875 7.78125 -14.9375 C 7.445312 -15.15625 7.082031 -15.414062 6.6875 -15.71875 C 6.289062 -16.019531 5.945312 -16.304688 5.65625 -16.578125 C 5.363281 -16.859375 5.21875 -17.054688 5.21875 -17.171875 C 5.21875 -17.273438 5.265625 -17.515625 5.359375 -17.890625 C 5.460938 -18.273438 5.582031 -18.691406 5.71875 -19.140625 C 5.851562 -19.597656 5.96875 -19.992188 6.0625 -20.328125 C 6.164062 -20.660156 6.21875 -20.828125 6.21875 -20.828125 Z M 6.21875 -20.828125 "/></g></g></g><g fill="#ff914d" fill-opacity="1"><g transform="translate(272.214131, 179.901389)"><g><path d="M 3.53125 -12.46875 C 3.4375 -12.5625 3.414062 -12.726562 3.46875 -12.96875 C 3.53125 -13.21875 3.609375 -13.453125 3.703125 -13.671875 C 3.804688 -13.890625 3.859375 -14 3.859375 -14 L 10.34375 -9.609375 L 10.375 -9.640625 L 13.109375 -7.75 L 4.0625 -0.265625 C 4.0625 -0.265625 3.945312 -0.367188 3.71875 -0.578125 C 3.5 -0.785156 3.25 -1.035156 2.96875 -1.328125 C 2.695312 -1.617188 2.460938 -1.867188 2.265625 -2.078125 C 2.066406 -2.285156 1.988281 -2.390625 2.03125 -2.390625 C 2.070312 -2.390625 2.3125 -2.570312 2.75 -2.9375 C 3.195312 -3.3125 3.757812 -3.78125 4.4375 -4.34375 C 5.113281 -4.90625 5.804688 -5.484375 6.515625 -6.078125 C 7.222656 -6.679688 7.859375 -7.222656 8.421875 -7.703125 C 8.992188 -8.179688 9.390625 -8.519531 9.609375 -8.71875 Z M 3.53125 -12.46875 "/></g></g></g></svg>